<svg width="240" height="56" viewBox="0 0 240 56" fill="none" xmlns="http://www.w3.org/2000/svg">
<path d="M1 55.0981H10.3327V30.7225C10.3327 25.915 13.4807 22.4219 17.9787 22.4219C22.326 22.4219 25.025 25.1641 25.025 29.5956V55.0981H34.0948V30.4965C34.0948 25.7275 37.168 22.4219 41.665 22.4219C46.2378 22.4219 48.7861 25.2006 48.7861 30.0831V55.0981H58.1188V27.7928C58.1188 19.8317 52.9838 14.5348 45.1507 14.5348C39.416 14.5348 34.6945 17.6154 32.7823 22.5344H32.5568C31.0955 17.427 27.085 14.5348 21.4635 14.5348C16.0665 14.5348 11.8688 17.5779 10.1447 22.1979H9.95756V15.2867H1V55.0981ZM78.5458 48.6754C74.4988 48.6754 71.8008 46.6101 71.8008 43.342C71.8008 40.1883 74.3856 38.1596 78.8836 37.8586L88.0657 37.2952V40.3373C88.0657 45.1448 83.8306 48.6754 78.5458 48.6754ZM75.7346 55.7366C80.8323 55.7366 85.8176 53.0703 88.104 48.7513H88.2911V55.0981H97.2861V27.6803C97.2861 19.6807 90.8769 14.4598 81.0203 14.4598C70.9008 14.4598 64.5674 19.7932 64.1548 27.2294H72.8121C73.4118 23.9247 76.223 21.7835 80.6452 21.7835C85.2554 21.7835 88.0666 24.1872 88.0666 28.3562V31.2109L77.572 31.8118C67.9025 32.4128 62.4681 36.6568 62.4681 43.7179C62.4681 50.8907 68.0512 55.7366 75.7346 55.7366ZM138.252 29.4831C137.615 21.1085 131.131 14.4598 120.637 14.4598C109.094 14.4598 101.598 22.4594 101.598 35.1915C101.598 48.1119 109.093 55.8856 120.712 55.8856C130.681 55.8856 137.54 50.0263 138.29 41.1248H129.482C128.62 45.6323 125.546 48.336 120.825 48.336C114.903 48.336 111.08 43.5285 111.08 35.1905C111.08 27.0034 114.865 22.045 120.75 22.045C125.734 22.045 128.694 25.2372 129.444 29.4821L138.252 29.4831ZM167.075 0C151.297 0 141.402 10.7793 141.402 28.0188C141.402 45.2582 151.296 56 167.076 56C182.817 56 192.712 45.2582 192.712 28.0188C192.712 10.7793 182.818 0 167.075 0ZM167.075 8.26304C176.708 8.26304 182.854 15.9251 182.854 28.0188C182.854 40.0749 176.707 47.737 167.076 47.737C157.406 47.737 151.297 40.0749 151.297 28.0188C151.297 15.9251 157.406 8.26304 167.076 8.26304H167.075ZM196.648 39.8499C197.061 49.8397 205.231 56 217.674 56C230.754 56 239 49.5398 239 39.2489C239 31.1744 234.352 26.6294 223.37 24.1132L217.149 22.6863C210.515 21.1085 207.78 19.0048 207.78 15.3992C207.78 10.8927 211.903 7.88806 218.012 7.88806C224.195 7.88806 228.431 10.9302 228.881 16.0001H238.101C237.876 6.46121 230.005 0.000961477 218.087 0.000961477C206.318 0.000961477 197.96 6.49774 197.96 16.1126C197.96 23.8497 202.682 28.6572 212.651 30.9484L219.66 32.6022C226.482 34.2165 229.255 36.4702 229.255 40.3758C229.255 44.8833 224.719 48.1129 218.199 48.1129C211.602 48.1129 206.618 44.8458 206.018 39.8499H196.648Z" fill="white"/>
</svg>
