<svg width="259" height="56" viewBox="0 0 259 56" fill="none" xmlns="http://www.w3.org/2000/svg">
<g clip-path="url(#clip0_50_2629)">
<path d="M0 35C0 32.0527 0.486704 29.3027 1.46011 26.75C2.43352 24.1974 3.79628 21.9737 5.54843 20.0789C7.30055 18.1842 9.39662 16.6974 11.8367 15.6184C14.2767 14.5395 16.9503 14 19.8575 14C22.0639 14 24.0691 14.329 25.8732 14.9868C27.6772 15.6448 29.4229 16.7237 31.1102 18.2237V14.7895H41V55.2105H31.1102V51.7763C29.4229 53.2763 27.6772 54.3553 25.8732 55.0132C24.0691 55.6711 22.0639 56 19.8575 56C16.9503 56 14.2767 55.4605 11.8367 54.3816C9.39662 53.3027 7.30055 51.8158 5.54843 49.9211C3.79628 48.0263 2.43352 45.8026 1.46011 43.25C0.486704 40.6974 0 37.9474 0 35ZM21.1425 46.5658C21.9212 46.5658 22.7388 46.4803 23.5954 46.3092C24.452 46.1382 25.3151 45.8487 26.1847 45.4408C27.0543 45.0329 27.9044 44.4869 28.735 43.8026C29.5657 43.1184 30.3573 42.2763 31.1102 41.2763V28.7237C30.3573 27.7237 29.5657 26.8882 28.735 26.2171C27.9044 25.5461 27.0543 25 26.1847 24.579C25.3151 24.1579 24.452 23.8619 23.5954 23.6908C22.7388 23.5198 21.9212 23.4343 21.1425 23.4342C19.6109 23.4343 18.1768 23.7237 16.84 24.3026C15.5031 24.8816 14.3415 25.6908 13.3552 26.7303C12.3688 27.7698 11.5965 28.9934 11.0385 30.4013C10.4804 31.8092 10.2013 33.3421 10.2013 35C10.2013 36.6579 10.4804 38.1908 11.0385 39.5987C11.5965 41.0066 12.3688 42.2303 13.3552 43.2697C14.3415 44.3092 15.5031 45.1184 16.84 45.6974C18.1768 46.2763 19.6109 46.5658 21.1425 46.5658Z" fill="white"/>
<path d="M66.5036 23.9274C61.8532 23.962 57.8138 27.2558 57.8138 32.1437V55H48V32.4186C48.0548 23.0023 56.0774 14.1269 66.3629 14H66.6371C76.9226 14.1269 84.9452 23.0023 85 32.4186V55H75.1862V32.1437C75.1862 27.2558 71.1468 23.962 66.4964 23.9274" fill="white"/>
<path d="M90 35.1295C90 32.2004 90.4867 29.4673 91.4601 26.9304C92.4335 24.3936 93.7963 22.1836 95.5484 20.3005C97.3005 18.4175 99.3966 16.9398 101.837 15.8675C104.277 14.7953 106.95 14.2591 109.858 14.2591C112.064 14.2591 114.076 14.586 115.893 15.2398C117.71 15.8937 119.449 16.9529 121.11 18.4175V3H131V55.2154H121.11V51.8416C119.449 53.3324 117.71 54.3981 115.893 55.0389C114.076 55.6796 112.064 56 109.858 56C106.95 56 104.277 55.4638 101.837 54.3916C99.3966 53.3193 97.3005 51.8416 95.5484 49.9586C93.7963 48.0755 92.4335 45.8655 91.4601 43.3287C90.4867 40.7918 90 38.0587 90 35.1295ZM111.142 46.624C111.921 46.624 112.739 46.539 113.595 46.369C114.452 46.1991 115.315 45.9113 116.185 45.5059C117.054 45.1005 117.904 44.5579 118.735 43.8779C119.566 43.1979 120.357 42.361 121.11 41.3671V28.8919C120.357 27.8981 119.566 27.0678 118.735 26.4008C117.904 25.7339 117.054 25.1912 116.185 24.7728C115.315 24.3543 114.452 24.0601 113.595 23.8901C112.739 23.7202 111.921 23.6351 111.142 23.6351C109.611 23.6351 108.177 23.9228 106.84 24.4982C105.503 25.0736 104.342 25.8778 103.355 26.9108C102.369 27.9439 101.597 29.16 101.038 30.5592C100.48 31.9584 100.201 33.4819 100.201 35.1295C100.201 36.7772 100.48 38.3007 101.038 39.6999C101.597 41.0991 102.369 42.3152 103.355 43.3483C104.342 44.3813 105.503 45.1856 106.84 45.7609C108.177 46.3363 109.611 46.624 111.142 46.624Z" fill="white"/>
<path d="M177.019 46.5658C178.501 46.5658 179.899 46.2829 181.212 45.7171C182.525 45.1513 183.668 44.3553 184.643 43.329C185.618 42.3026 186.385 41.0855 186.944 39.6776C187.503 38.2698 187.783 36.7106 187.783 35C187.783 33.3158 187.497 31.7698 186.925 30.3618C186.353 28.954 185.573 27.7369 184.585 26.7105C183.597 25.6843 182.453 24.8816 181.153 24.3026C179.853 23.7237 178.475 23.4343 177.019 23.4342C175.538 23.4343 174.14 23.7237 172.827 24.3026C171.514 24.8816 170.37 25.6843 169.396 26.7105C168.421 27.7369 167.647 28.954 167.075 30.3618C166.503 31.7698 166.217 33.3158 166.217 35C166.217 36.7106 166.497 38.2698 167.056 39.6776C167.615 41.0855 168.382 42.3026 169.357 43.329C170.331 44.3553 171.475 45.1513 172.788 45.7171C174.101 46.2829 175.512 46.5658 177.019 46.5658ZM177.019 56C174.134 56 171.417 55.4737 168.869 54.4211C166.321 53.3684 164.092 51.9013 162.181 50.0197C160.27 48.1382 158.762 45.9145 157.657 43.3487C156.552 40.7829 156 38 156 35C156 32.079 156.552 29.3421 157.657 26.7895C158.762 24.2369 160.264 22.0132 162.162 20.1184C164.059 18.2237 166.289 16.7303 168.85 15.6382C171.41 14.5461 174.134 14 177.019 14C179.905 14 182.622 14.5461 185.17 15.6382C187.718 16.7303 189.941 18.2237 191.838 20.1184C193.736 22.0132 195.238 24.2369 196.343 26.7895C197.448 29.3421 198 32.079 198 35C198 38 197.448 40.7829 196.343 43.3487C195.238 45.9145 193.73 48.1382 191.819 50.0197C189.908 51.9013 187.685 53.3684 185.15 54.4211C182.616 55.4737 179.905 56 177.019 56Z" fill="white"/>
<path d="M207.981 12C207.168 12 206.4 11.8413 205.676 11.5238C204.952 11.2064 204.317 10.7747 203.771 10.2286C203.225 9.68257 202.794 9.04767 202.476 8.32382C202.159 7.60006 202 6.83181 202 6.01905C202 5.20641 202.159 4.4318 202.476 3.69523C202.794 2.95878 203.225 2.31753 203.771 1.77143C204.317 1.22545 204.952 0.793713 205.676 0.476199C206.4 0.158787 207.168 6.066e-05 207.981 0C208.794 6.066e-05 209.568 0.158726 210.305 0.476199C211.041 0.793713 211.683 1.22545 212.229 1.77143C212.775 2.31753 213.206 2.95878 213.524 3.69523C213.841 4.4318 214 5.20641 214 6.01905C214 6.83181 213.841 7.60006 213.524 8.32382C213.206 9.04767 212.775 9.68257 212.229 10.2286C211.683 10.7747 211.041 11.2064 210.305 11.5238C209.568 11.8413 208.794 12 207.981 12Z" fill="white"/>
<path d="M203 15H213V55H203V15Z" fill="white"/>
<path d="M218 35.1295C218 32.2004 218.487 29.4673 219.46 26.9304C220.434 24.3936 221.796 22.1836 223.548 20.3005C225.301 18.4175 227.397 16.9398 229.837 15.8675C232.277 14.7953 234.95 14.2591 237.858 14.2591C240.064 14.2591 242.076 14.586 243.893 15.2398C245.71 15.8937 247.449 16.9529 249.11 18.4175V3H259V55.2154H249.11V51.8416C247.449 53.3324 245.71 54.3981 243.893 55.0389C242.076 55.6796 240.064 56 237.858 56C234.95 56 232.277 55.4638 229.837 54.3916C227.397 53.3193 225.301 51.8416 223.548 49.9586C221.796 48.0755 220.434 45.8655 219.46 43.3287C218.487 40.7918 218 38.0587 218 35.1295ZM239.142 46.624C239.921 46.624 240.739 46.539 241.595 46.369C242.452 46.1991 243.315 45.9113 244.185 45.5059C245.054 45.1005 245.904 44.5579 246.735 43.8779C247.566 43.1979 248.357 42.361 249.11 41.3671V28.8919C248.357 27.8981 247.566 27.0678 246.735 26.4008C245.904 25.7339 245.054 25.1912 244.185 24.7728C243.315 24.3543 242.452 24.0601 241.595 23.8901C240.739 23.7202 239.921 23.6351 239.142 23.6351C237.611 23.6351 236.177 23.9228 234.84 24.4982C233.503 25.0736 232.342 25.8778 231.355 26.9108C230.369 27.9439 229.597 29.16 229.038 30.5592C228.48 31.9584 228.201 33.4819 228.201 35.1295C228.201 36.7772 228.48 38.3007 229.038 39.6999C229.597 41.0991 230.369 42.3152 231.355 43.3483C232.342 44.3813 233.503 45.1856 234.84 45.7609C236.177 46.3363 237.611 46.624 239.142 46.624Z" fill="white"/>
<path d="M156 23.9995C149.181 23.9995 146.175 27.4271 146.175 32.2848V55H136V32.558C136.057 23.1999 141.605 14 156 14" fill="white"/>
</g>
<defs>
<clipPath id="clip0_50_2629">
<rect width="259" height="56" fill="white"/>
</clipPath>
</defs>
</svg>
