<svg width="267" height="60" viewBox="0 0 267 60" fill="none" xmlns="http://www.w3.org/2000/svg">
<g clip-path="url(#clip0_50_2610)">
<path fill-rule="evenodd" clip-rule="evenodd" d="M183.21 12C177.796 12 173.408 16.3617 173.408 21.7422V38.3655C173.408 41.4071 170.927 43.8728 167.867 43.8727H149V48H171.439C176.853 48 181.241 43.6381 181.241 38.2576V21.6343C181.241 18.5927 183.722 16.127 186.782 16.1271L206 16.1271V12H183.21Z" fill="white"/>
<path fill-rule="evenodd" clip-rule="evenodd" d="M98 12V16.1271H137.462C140.607 16.1271 143.157 18.658 143.157 21.78C143.157 24.9019 140.607 27.4328 137.462 27.4328H107.814C102.394 27.4329 98 31.7946 98 37.175V48H105.843V37.0674C105.843 34.0257 108.327 31.5601 111.391 31.5601H141.147C146.589 31.5601 151 27.1814 151 21.78C151 16.3787 146.589 12 141.147 12H98Z" fill="white"/>
<path fill-rule="evenodd" clip-rule="evenodd" d="M214 12V25.4425C214 28.8211 216.757 31.5601 220.157 31.5601H252.967C256.389 31.5601 259.164 34.3163 259.164 37.7163C259.164 41.1164 256.389 43.8727 252.967 43.8727H214V48H256.649C262.366 48 267 43.3959 267 37.7165C267 32.0371 262.366 27.4329 256.649 27.4328H224.311C222.944 27.4328 221.836 26.332 221.836 24.9742V16.1271H265.58V12H214Z" fill="white"/>
<path d="M29 0V55.9777L41.7427 60V13.0454C41.7427 10.8512 42.7292 9.37557 44.3204 9.89078C46.4002 10.4625 46.8048 12.4872 46.8048 14.6859V33.437C54.7514 37.2492 61 33.4347 61 23.3723C61 13.0454 57.3427 8.4649 46.5548 4.77478C42.3087 3.3602 34.4212 0.994275 29 0Z" fill="white"/>
<path d="M44 51.7108L64.6077 44.4845C66.9434 43.6618 67.3045 42.493 65.4053 41.8839C63.5084 41.2748 60.0711 41.4524 57.7354 42.2728L44 47.0334V39.4632L44.7908 39.2024C44.7908 39.2024 48.7605 37.8179 54.3347 37.2088C59.9157 36.6131 66.7491 37.2874 72.1084 39.2923C78.1557 41.1737 78.8344 43.9361 77.3009 45.8398C75.7605 47.7481 72.001 49.1102 72.001 49.1102L44 59V51.7108Z" fill="white"/>
<path d="M5.922 50.9322C-0.298715 49.2305 -1.33703 45.6959 1.49598 43.6539C4.12501 41.7654 8.58082 40.3507 8.58082 40.3507L27 34V41.2382L13.7449 45.8449C11.4001 46.6591 11.0471 47.8158 12.9427 48.4141C14.852 49.0236 18.2947 48.8501 20.6418 48.0315L27 45.796V52.2779C26.5943 52.3446 26.1473 52.4136 25.7348 52.4781C19.3719 53.4858 12.5965 53.0676 5.922 50.9322Z" fill="white"/>
</g>
<defs>
<clipPath id="clip0_50_2610">
<rect width="267" height="60" fill="white"/>
</clipPath>
</defs>
</svg>
