<svg width="112" height="56" viewBox="0 0 112 56" fill="none" xmlns="http://www.w3.org/2000/svg">
<g clip-path="url(#clip0_50_2639)">
<path d="M0.520671 55.0999H9.78248V15.3683H0.520671V55.0999ZM5.13301 10.1578C8.03431 10.1578 10.3032 7.90881 10.3032 5.09768C10.3032 2.24893 8.03431 0 5.13301 0C2.26894 0 0 2.24902 0 5.09768C0 7.90891 2.26894 10.1578 5.13301 10.1578ZM40.6192 0.112173C24.96 0.112173 15.1398 10.8698 15.1398 28.0748C15.1398 45.2798 24.9591 56 40.6192 56C56.2412 56 66.0614 45.2798 66.0614 28.0748C66.0614 10.8698 56.2421 0.112173 40.6192 0.112173ZM40.6192 8.35847C50.1784 8.35847 56.2783 16.005 56.2783 28.0746C56.2783 40.1066 50.1783 47.7533 40.6192 47.7533C31.0228 47.7533 24.96 40.1068 24.96 28.0746C24.96 16.0052 31.0229 8.35847 40.6192 8.35847ZM69.9683 39.882C70.3775 49.8528 78.4862 55.9998 90.8351 55.9998C103.817 55.9998 112 49.5527 112 39.2823C112 31.2235 107.388 26.688 96.4894 24.1769L90.3148 22.7525C83.7311 21.1782 81.0159 19.0792 81.0159 15.4808C81.0159 10.9829 85.1075 7.98424 91.1703 7.98424C97.3076 7.98424 101.51 11.0204 101.957 16.0805H111.107C110.884 6.55986 103.073 0.112461 91.245 0.112461C79.5651 0.112461 71.2704 6.597 71.2704 16.1928C71.2704 23.9143 75.9571 28.7122 85.8507 30.9989L92.8063 32.6482C99.576 34.26 102.328 36.5089 102.328 40.4071C102.328 44.9051 97.8277 48.1286 91.3561 48.1286C84.8096 48.1286 79.8629 44.8676 79.2677 39.8823H69.9688L69.9683 39.882Z" fill="white"/>
</g>
<defs>
<clipPath id="clip0_50_2639">
<rect width="112" height="56" fill="white"/>
</clipPath>
</defs>
</svg>
