<svg width="172" height="60" viewBox="0 0 172 60" fill="none" xmlns="http://www.w3.org/2000/svg">
<path fill-rule="evenodd" clip-rule="evenodd" d="M38 59H0.0676027V57.6547C6.71402 56.9821 7.31769 56.3934 7.31769 50.5915V11.4087C7.31769 5.60646 6.6471 4.9341 0 4.34474V3.00001H21.8201V4.34474C14.5693 4.9341 13.8303 5.60646 13.8303 11.4087V51.0122C13.8303 56.4777 14.7031 57.4021 20.1413 57.4021C30.2115 57.4021 35.9181 50.3392 36.8587 36.5495H38V59Z" fill="white"/>
<path fill-rule="evenodd" clip-rule="evenodd" d="M55.5396 10.9428C53.3147 10.9428 51.4942 8.70611 51.4942 5.97139C51.4942 3.23759 53.3147 1 55.5396 1C57.7638 1 59.5838 3.23759 59.5838 5.97139C59.5838 8.70611 57.7638 10.9428 55.5396 10.9428ZM61 43.8372C58.4379 53.2828 54.1235 59 49.6738 59C45.8992 59 43.4042 55.6032 43.4042 50.3C43.4042 48.1457 43.8089 45.826 44.7528 42.3454L48.1237 29.503C48.1909 29.2545 48.461 28.4262 48.865 26.8521C49.27 25.4434 49.4719 24.4491 49.4719 23.7866C49.4719 22.1288 48.6631 21.0519 47.4492 21.0519C44.348 21.0519 41.517 25.278 38.1461 34.9718L37 34.3913C38.888 28.2605 41.045 23.952 43.4721 21.3C44.8207 19.8913 46.3032 19.2287 47.989 19.2287C51.8314 19.2287 54.5279 22.7914 54.5279 27.7631C54.5279 30.0004 53.7187 34.3082 52.5727 38.3686L50.8876 44.2512L49.607 49.1397L48.9329 51.4601C48.6631 52.5373 48.461 53.6972 48.461 54.4427C48.461 56.0999 49.27 57.177 50.4157 57.177C53.5844 57.177 57.0896 52.1226 59.8539 43.4229L61 43.8372Z" fill="white"/>
<path fill-rule="evenodd" clip-rule="evenodd" d="M82.2769 19C85.1956 19 88.115 20.4159 89.7068 22.6664C91.366 25.0832 91.6307 26.5832 91.6307 33.8328V51.2499C91.6307 56.167 92.6268 57.0836 98 57.6667V59H79.0925V57.6667C84.5322 57.0836 85.461 56.167 85.461 51.3328V34.2495C85.461 23.4168 84.8641 21.8336 80.7505 21.8336C76.9691 21.8336 73.3867 25 71.7279 29.8331C70.1358 34.4163 69.7375 37.6666 69.7375 45.7497V51.3328C69.7375 56.167 70.6663 57.0836 76.1067 57.6667V59H57.1983V57.6667C62.639 57.0836 63.5679 56.167 63.5679 51.3328V27.8336C63.5679 23.5 63.3686 22.8336 61.7763 22.1664C60.8475 21.7495 59.919 21.6664 57 21.4168V20C60.8475 19.9168 66.4208 19.5 69.7375 19V31.2499C71.8605 23.5 76.5046 19 82.2769 19Z" fill="white"/>
<path fill-rule="evenodd" clip-rule="evenodd" d="M114.796 19.998C119.182 19.915 124.431 19.499 127.62 19V51.1845C127.62 56.0917 128.551 57.0064 134 57.5884V58.9189H133.07L127.289 59.2513C124.896 59.3351 123.301 59.5011 122.57 59.5838C122.304 59.5838 121.905 59.6676 121.375 59.7506V47.8578C119.979 51.8498 119.315 53.0974 117.719 55.2593C115.461 58.3367 112.204 60 108.882 60C105.958 60 103.299 58.5864 101.904 56.1744C100.31 53.5963 99.8443 50.7687 99.8443 45.1133V27.8157C99.8443 23.4909 99.5782 22.8259 97.9838 22.1599C96.987 21.8279 95.6577 21.5779 93 21.4119V19.998C96.987 19.915 103.101 19.499 106.024 19V47.0264C106.024 54.2619 107.486 57.5884 110.742 57.5884C114.463 57.5884 118.384 53.1808 120.112 46.9427C121.041 43.7831 121.375 40.6227 121.375 35.7993V27.8157C121.375 23.4909 121.174 22.8259 119.58 22.1599C118.716 21.8279 117.387 21.5779 114.796 21.4119V19.998Z" fill="white"/>
<path fill-rule="evenodd" clip-rule="evenodd" d="M164.666 51.9701C167.334 56.6565 168.2 57.3264 172 57.661V59H153.8V57.661C157.666 57.2429 158.733 56.7408 158.733 55.234C158.733 54.8152 158.399 53.9786 158 53.2255L156.867 51.1328L151 41.0066L146.6 48.6224C144.933 51.6356 144.133 53.4762 144.133 54.6481C144.133 56.5734 145.266 57.2429 149.267 57.661V59H134V57.661C138 57.0754 139.6 55.9874 142.533 51.8027C144.133 49.4589 144.333 49.1243 147.067 44.438L150 39.2487L142.999 26.9464C140.533 22.5952 139.533 21.8415 135.466 21.3393V20H153.266V21.3393C150 21.6744 148.8 22.2601 148.8 23.515C148.8 23.8501 148.999 24.4357 149.333 25.1059L150.333 26.9464L155.333 35.6499L159.267 28.955C160.4 26.9464 160.999 25.3565 160.999 24.1851C160.999 22.5107 159.8 21.8415 156.133 21.3393V20H170.466V21.3393C166.266 22.0086 164.466 23.4314 161.867 27.8675L160.067 30.8796L156.333 37.3239L164.666 51.9701Z" fill="white"/>
</svg>
