<svg width="982" height="820" viewBox="0 0 982 820" fill="none" xmlns="http://www.w3.org/2000/svg">
<path d="M671.508 700.618C683.374 658.394 680.677 605.343 601.932 586.396C611.101 473.256 610.022 449.979 520.489 386.642C506.87 376.958 496.59 363.262 491.084 347.449C485.571 331.637 506.862 373.589 511.5 357.5C518 342 520.5 335.5 519.5 322C518.056 302.5 516.005 298.364 509.5 279C502.995 259.636 506.5 268.5 497 251C483.23 235.951 476.178 227.142 457.5 219C438.828 210.853 321.855 204.338 301.5 204.5C263.821 204.809 225.048 226.315 196.5 251C167.957 275.685 161.374 286.648 155.5 324C148.31 371.064 198.5 310 208.743 340.087C155.347 333.05 135.391 381.77 159.122 422.912C90.0851 458.099 67.9716 467.302 81.4554 636.199L71.2078 638.364C63.5058 639.967 56.2837 643.345 50.1081 648.233C43.9325 653.121 38.9759 659.379 35.6265 666.525C32.2771 673.665 30.6321 681.487 30.8155 689.38C30.9989 697.273 33.0108 705.008 36.6892 711.986L39.9251 717.941L6.48533 735.264C4.54366 736.19 2.90938 737.646 1.76056 739.465C0.617126 741.284 0.00762846 743.395 0.013022 745.549C-0.0624875 747.157 0.191011 748.765 0.757333 750.275C1.31826 751.78 2.18123 753.16 3.2923 754.324C4.39797 755.488 5.73025 756.414 7.20808 757.047C8.68591 757.675 10.2716 758 11.8789 758H672.047C676.896 757.935 681.616 756.414 685.601 753.631C689.582 750.849 692.64 746.93 694.382 742.388C696.124 737.841 696.469 732.877 695.369 728.134C694.274 723.392 691.782 719.089 688.228 715.776L671.508 700.618Z" fill="#25CE74"/>
<path d="M291.206 433C258.439 440.541 261.662 454.006 260.05 545.033C258.439 636.06 296.041 534.799 299.264 498.712C301.466 476.477 298.711 454.033 291.206 433Z" fill="#23272A"/>
<path d="M492.316 425.647C493.019 420.656 497.66 417.092 502.584 418.174C523.879 422.854 524.169 440.26 535.583 511.267C548.384 590.899 502.237 506.856 494.86 475.614C490.826 459.25 489.975 442.296 492.316 425.647Z" fill="#23272A"/>
<path d="M662 758L428 680.5L213 758L324.892 651.246L526.081 561.121C533.027 557.387 540.643 555.07 548.503 554.292C556.357 553.514 564.287 554.292 571.838 556.594C579.384 558.89 590.5 561.121 600 564.5C614.5 568.5 624.5 573 642.5 576.5L807.5 608L662 758Z" fill="#A04EFF"/>
<path d="M670 758L422.5 676.5L287 758H670Z" fill="#23272A"/>
<path d="M688.147 649.084C706.889 657.938 724.761 664.474 752.072 675.197L688.147 649.084Z" fill="#23272A"/>
<path d="M688.147 649.084C706.889 657.938 724.761 664.474 752.072 675.197" stroke="#23272A" stroke-width="2" stroke-linecap="round" stroke-linejoin="round"/>
<path d="M805.935 589.913L763.329 699.81L823.842 724.127L866.452 614.234L805.935 589.913Z" fill="white"/>
<path d="M821.648 660.446C833.669 629.917 827.13 598.72 807.051 590.772C786.969 582.82 760.943 601.124 748.929 631.653C736.907 662.182 743.447 693.378 763.529 701.33C783.608 709.278 809.629 690.978 821.648 660.446Z" fill="white"/>
<path d="M853.08 738.679L900.032 698.923C927.352 675.085 942.048 649.938 946.28 625.184C955.02 576.852 937.737 567.492 918.28 564.913C898.822 562.335 869.366 571.751 867.887 616.757L822.897 726.834L853.08 738.679Z" fill="#DC4DA8"/>
<path d="M931.787 567.937C928.811 566.164 925.471 565.079 922.018 564.78C918.561 564.476 915.086 564.956 911.84 566.183C908.597 567.413 905.664 569.358 903.279 571.873C900.89 574.392 899.1 577.415 898.038 580.719C887.918 608.672 900.846 658.75 895.495 676.204C890.144 693.657 874.553 712.602 846.918 736.001L853.325 738.474L900.221 698.766C927.501 674.948 942.064 649.695 946.097 624.742C952.227 588.68 944.471 574.427 931.787 567.937Z" fill="#25CE74"/>
<path d="M879.986 682.4C892.252 652.573 886.43 622.426 866.971 615.068C847.512 607.71 821.791 625.93 809.518 655.757C797.252 685.584 803.075 715.731 822.534 723.089C841.992 730.447 867.713 712.227 879.986 682.4Z" fill="#DC4DA8"/>
<path d="M913.265 640.229L913.264 640.224C908.152 612.396 911.701 592.571 918.489 581.954C921.88 576.649 926.048 573.687 930.312 573.094C934.554 572.504 939.018 574.242 943.069 578.601C948.605 586.808 950.687 600.829 946.454 625.154C942.235 649.399 927.754 674.104 900.823 697.6L887.868 708.569C907.005 688.858 918.104 668.036 913.265 640.229Z" fill="#23272A" stroke="#23272A"/>
<path d="M315.092 246.697C256.155 264.554 246.333 300.593 295.447 322.346L320 332C320 332 337.197 348.471 353.385 353.875C369.573 359.278 395.5 349.5 395.5 349.5L466.212 310.982C479.541 302.473 486.085 292.333 484.853 282.087C483.629 271.843 474.705 262.045 459.412 254.165C441.927 245.366 417.378 239.714 390.645 238.331C363.912 236.948 336.944 239.935 315.092 246.697Z" fill="#771FE2"/>
<path d="M353.5 758C280 758 335.15 758 271.913 758H213V651.246L382.172 561.121C389.117 557.387 396.733 555.07 404.591 554.292C412.445 553.514 420.374 554.292 427.924 556.594C435.469 558.89 441 561.121 450.5 566.5C469 574.5 473.5 576.5 486.5 581.5L574.5 616.5L477.5 696L353.5 758Z" fill="#A04EFF"/>
<path d="M816.443 593.966C797.029 586.021 771.505 604.15 759.713 634.338C747.922 664.525 753.607 694.544 773.087 701.736L788.864 707.884C769.04 700.286 763.012 669.861 775.147 640.08C787.281 610.298 812.396 592.516 831.876 599.708L816.443 593.966Z" fill="#4550BF"/>
<path d="M706.998 777.203L645.86 752.972" stroke="#23272A" stroke-width="2" stroke-linecap="round" stroke-linejoin="round"/>
<path d="M718.745 663.74L675.552 772.563L737.778 797.001L780.971 688.177L718.745 663.74Z" fill="white"/>
<path d="M769.647 809.326L815.6 770.416C842.331 747.076 856.582 722.307 860.501 697.817C868.626 650.006 851.459 640.548 832.215 637.788C812.971 635.029 783.979 644.051 782.991 688.642L739.713 797.27L769.647 809.326Z" fill="#F073C3"/>
<path d="M845.577 640.935C842.615 639.149 839.292 638.05 835.873 637.721C832.447 637.392 829.003 637.845 825.797 639.038C822.594 640.235 819.708 642.14 817.361 644.623C815.014 647.106 813.265 650.095 812.242 653.365C802.437 681.052 815.639 730.898 810.476 748.192C805.312 765.487 790.016 784.183 763.235 806.859L769.19 809.714L815.335 770.641C842.174 747.197 856.402 722.227 860.201 697.473C865.99 661.7 858.194 647.481 845.577 640.935Z" fill="#25CE74"/>
<path d="M856.598 651.345C862.241 659.652 864.512 673.738 860.626 698.062C856.753 722.3 842.651 746.855 815.769 769.617L813.806 771.28C818.45 766.039 822.157 760.502 824.693 753.802C828.551 743.613 829.683 730.79 827.386 712.308C824.19 684.141 827.639 664.321 833.839 653.869C836.937 648.647 840.674 645.836 844.549 645.386C848.41 644.937 852.579 646.812 856.598 651.345Z" fill="#23272A" stroke="#23272A"/>
<path d="M732.454 732.038C744.079 701.846 737.33 670.825 717.391 662.759C697.449 654.688 671.859 672.623 660.243 702.816C648.618 733.008 655.367 764.028 675.309 772.099C695.248 780.165 720.833 762.234 732.454 732.038Z" fill="white"/>
<path d="M793.681 755.473C806.005 725.603 800.206 695.438 780.729 688.095C761.253 680.752 735.477 699.012 723.156 728.886C710.84 758.756 716.636 788.924 736.112 796.267C755.589 803.61 781.365 785.343 793.681 755.473Z" fill="#F073C3"/>
<path d="M735.609 670.273C716.195 662.328 690.671 680.458 678.879 710.645C667.088 740.832 672.773 770.851 692.253 778.043L708.03 784.191C688.206 776.593 682.178 746.168 694.313 716.387C706.447 686.605 731.562 668.823 751.042 676.015L735.609 670.273Z" fill="#4550BF"/>
<path d="M46 706C75.4445 715.315 112.111 739.425 141 746" stroke="#19B375" stroke-width="2" stroke-linecap="round" stroke-linejoin="round"/>
<path d="M206.5 340C224.87 343.387 243.194 352.308 257.672 364.46C258.648 365.445 259.957 366 261.324 366C262.691 366 264.001 365.445 264.976 364.46C265.503 363.916 265.905 363.265 266.166 362.549C266.427 361.833 266.536 361.063 266.489 360.298C266.437 359.533 266.234 358.79 265.884 358.117C265.529 357.439 265.044 356.852 264.455 356.383C247.702 341.873 223.719 334.703 202 332C206 334.5 205.504 336.479 206.5 340Z" fill="#19B375"/>
<path d="M491.5 349.5C473.13 352.887 450.306 362.308 435.828 374.46C434.852 375.445 433.543 376 432.176 376C430.809 376 429.499 375.445 428.524 374.46C427.997 373.916 427.595 373.265 427.334 372.549C427.073 371.833 426.964 371.063 427.011 370.298C427.063 369.533 427.267 368.79 427.616 368.117C427.971 367.439 428.456 366.852 429.046 366.383C445.798 351.873 469.781 344.703 491.5 342C487.5 344.5 492.496 345.979 491.5 349.5Z" fill="#19B375"/>
<path d="M491.957 453L520 468.474L508.465 474L476 458.526L491.957 453Z" fill="#F5CFA8"/>
<path d="M347.093 462L319.05 477.474L330.585 483L363.05 467.526L347.093 462Z" fill="#F5CFA8"/>
<path d="M395 301.464V349.75C372.714 371.615 328.548 348.095 320.5 332L346.714 255L395 301.464Z" fill="#F5CFA8"/>
<path d="M395 301.587V350C388.538 332.644 382.692 319.551 374.692 303.413L347 255L395 301.587Z" fill="#D5AC81"/>
<path d="M395 301.69V320C385.769 307.183 383 303.521 376.538 295.282L347 255L395 301.69Z" fill="#373431"/>
<path d="M442.666 165.459C399.304 123.869 360.024 144.314 344.282 161.196C343.371 162.173 342.718 163.348 342.337 164.629C339.466 174.281 334.698 195.224 334.698 215.639C315.663 234.624 332.257 247.889 342.933 252.148C357.575 270.099 389.056 306 397.841 306C406.547 306 432.148 285.683 444.186 275.249C444.405 275.059 444.567 274.844 444.683 274.578C450.973 260.159 459.471 219.957 445.224 169.719C444.768 168.113 443.871 166.615 442.666 165.459Z" fill="#F5CFA8"/>
<path d="M346.799 181.168C343.213 167.028 349.482 184.603 336.088 201.47C335.309 202.451 334.717 203.574 334.185 204.711C333.663 202.985 333.125 207.012 334.07 204.959C334.108 204.876 334.147 204.794 334.185 204.711C334.487 205.711 334.784 208.639 334.784 215.793C315.56 234.746 332.319 247.988 343.102 252.24C357.89 270.16 389.684 306 398.557 306C407.429 306 372.68 273.197 368.058 254.974C356.965 226.727 362.326 232.923 346.799 181.168Z" fill="#D5AC81"/>
<path d="M340.356 225.165L344 239.599C344 240.501 342.178 239.599 341.267 239.599C332.158 236.893 333.98 223.361 340.356 225.165Z" fill="#373431"/>
<path d="M343.692 220.885L335.341 215.888C330.78 200.425 338.946 166.728 343.55 162.223C391.897 114.926 441.156 160.404 445.717 167.681C449.876 174.316 458.999 187.692 452.999 221.5C452.53 218.681 453.601 214.276 450.097 203.487C449.635 202.065 448.825 200.776 447.728 199.76C438.041 190.792 426.589 186.509 411.053 197.697C401.931 188.601 389.161 185.872 377.302 187.692C359.27 190.458 352.064 232.564 350.848 255L344.63 222.228C344.524 221.667 344.182 221.178 343.692 220.885Z" fill="#23272A"/>
<path d="M389.084 207.885C388.904 207.867 388.838 207.646 388.985 207.541C390.266 206.624 394.369 203.928 397.535 204.561C402.919 205.638 401.169 209.081 401.5 211.823C401.521 212.004 401.314 212.143 401.163 212.041L396.016 208.553L389.084 207.885Z" fill="#23272A"/>
<path d="M451.36 236.828C451.489 236.955 451.7 236.862 451.686 236.682C451.561 235.112 450.977 230.238 448.452 228.225C444.158 224.804 442.654 228.361 440.345 229.876C440.192 229.976 440.22 230.224 440.395 230.274L446.379 231.96L451.36 236.828Z" fill="#23272A"/>
<path d="M408.34 250.749C406.8 249.836 405.081 249.833 404.497 250.746C403.914 251.656 404.687 253.138 406.227 254.052C407.764 254.966 409.484 254.966 410.067 254.055C410.652 253.144 409.876 251.663 408.34 250.749Z" fill="#23272A"/>
<path d="M432.24 240.447C431.766 242.058 433.681 244.521 436.513 245.945C439.345 247.369 442.023 247.216 442.497 245.605C442.976 243.998 441.062 241.535 438.235 240.114C435.403 238.689 432.72 238.84 432.24 240.447Z" fill="#23272A"/>
<path d="M386.352 220.8C386.02 222.446 388.14 224.734 391.085 225.907C394.029 227.082 396.684 226.698 397.017 225.052C397.355 223.408 395.235 221.12 392.296 219.95C389.352 218.775 386.691 219.157 386.352 220.8Z" fill="#23272A"/>
<path d="M401.386 249.044C400.106 245.028 401.992 245.163 404.198 246.303C405.963 247.215 404.556 247.42 403.631 247.408L403.082 248.469C403.068 248.496 403.06 248.527 403.06 248.558L403.023 251.287C403.011 252.212 402.666 253.059 401.386 249.044Z" fill="#23272A"/>
<path d="M423.92 257.503C423.921 259.622 421.057 261.437 416.535 259.663C416.484 259.643 416.441 259.598 416.421 259.547C414.694 255.085 420.109 256.89 420.109 256.89C421.654 256.89 422.093 256.589 420.072 249.279C420.301 248.171 421.223 249.036 421.654 249.607C421.272 251.454 423.92 255.675 423.92 257.503Z" fill="#23272A"/>
<path d="M405.534 266.136C411.507 263.838 416.142 269.199 418.976 272.109C419.09 274.636 412.313 270.386 408.751 270.041L408.738 270.04C405.189 269.697 405.189 269.697 404.158 269.238C403.123 268.778 401.953 268.195 399.446 265.907C396.804 263.495 390.9 260.624 392.094 260.164C396.574 258.441 404.845 262.116 405.534 266.136Z" fill="#23272A"/>
<path d="M396.321 267.538C398.805 274.402 406.635 274.99 410.456 274.403C410.568 274.386 410.672 274.47 410.678 274.582C410.912 279.023 398.116 275.626 395.111 269.798C394.91 269.217 393.932 267.504 396.126 267.404C396.212 267.4 396.292 267.457 396.321 267.538Z" fill="#23272A"/>
<path d="M366 95.4999C416 95.4999 391.5 124.167 373 138.5L352.5 154.5C353.167 168.167 350.5 199.5 334.5 215.5C318.5 231.5 328.5 244.167 335.5 248.5L327.5 263C354 289.5 320.5 315 316 319.5C346.8 350.3 292.167 387.333 261 402C269.667 394.167 279.3 370.8 248.5 340C217.7 309.2 223 291.167 229.5 286C189.9 286 203 244.5 221 229.5C208.5 214 226 193.833 243 190.5C207.801 155.3 251 120 287 128.5C279.833 122.333 270.7 104.8 291.5 83.9999C317.5 57.9999 360 62.4999 366 95.4999Z" fill="#23272A"/>
<path d="M374.167 137C375.633 137 376 140.158 376 141.737V142.684L353.999 155C350.943 153.737 347.765 151.968 352.166 147.421C357.666 141.737 372.333 137 374.167 137Z" fill="#AF74EE"/>
<path d="M421.287 507.765L438.819 530.319L442.322 494.369L421.336 493.783L421.287 507.765Z" fill="white"/>
<path d="M411.797 508.119L435.56 509.462C429.668 531.251 442.033 538.745 448.952 539.769C457.267 540.323 475.702 540.395 482.918 536.247C491.939 531.062 510.985 484.111 499.765 464.557C490.79 448.914 483.386 445.302 480.806 445.452C442.82 446.617 365.397 447.383 358.566 446.706C351.147 445.97 345.652 458.463 343.336 465.461L334.37 498.617C333.089 503.354 334.531 507.416 335.358 509.051C340.322 518.865 352.51 538.596 361.542 539.005C390.887 546.941 407.273 521.721 411.797 508.119Z" fill="white"/>
<path d="M411.978 508.197L435.825 509.546C429.913 531.404 442.322 538.924 449.265 539.952C457.61 540.509 476.109 540.582 483.351 536.421C492.403 531.22 511.932 477.859 500.251 464.501C491.991 455.057 465.265 461.414 452.559 461.803C414.44 462.968 385.083 464.055 378.228 463.374C370.783 462.636 360.198 475.072 357.875 482.092L351.128 507.039C348.58 516.463 349.044 527.187 355.296 534.684C357.069 536.812 359.164 538.533 361.549 539.178C390.997 547.142 407.439 521.842 411.978 508.197Z" fill="#4550BF"/>
<circle cx="371" cy="379" r="8" fill="#771FE2"/>
<circle cx="373" cy="403" r="6" fill="#771FE2"/>
<circle cx="375" cy="426" r="4" fill="#771FE2"/>
<path d="M524.344 467L528.6 467.5L534.05 501.5C525.184 499.335 520.475 499.472 517.896 499.472C515.317 499.472 500.434 513.543 492.911 520.578C487.27 524.637 485.148 518.871 485.658 517.331C486.464 514.896 506.613 499.472 506.613 497.036C506.613 495.088 505.269 495.142 504.195 495.413L471.957 518.143C463.897 523.826 461.479 515.708 465.509 512.461L496.135 488.107L447.778 510.025C436.173 510.025 439.718 502.719 444.555 500.284L469.539 488.919L454.225 493.789C440.04 493.789 447.778 482.838 454.225 480.801C467.927 476.471 487.753 469.923 492.911 468.624C498.553 468.624 519.508 467 524.344 467Z" fill="#F5CFA8"/>
<path d="M313.933 476.122L294.112 479.246C293.045 479.414 292.011 479.755 291.052 480.254L260.8 496L260 547L290.448 513.741C291.786 512.28 293.521 511.232 295.47 510.874C304.745 509.167 318.839 508.472 321.154 508.472C323.733 508.472 338.616 522.543 346.138 529.578C351.78 533.637 353.902 527.871 353.392 526.331C352.586 523.896 332.437 508.472 332.437 506.036C332.437 504.088 333.78 504.142 334.855 504.413L367.093 527.143C375.153 532.826 377.571 524.708 373.541 521.461L342.915 497.107L391.271 519.025C402.877 519.025 399.332 511.719 394.495 509.284L369.511 497.919L384.825 502.789C399.009 502.789 391.271 491.838 384.825 489.801C371.123 485.471 351.296 478.923 346.138 477.624C340.758 477.624 321.449 476.146 315.478 476.01C314.957 475.998 314.447 476.041 313.933 476.122Z" fill="#F5CFA8"/>
</svg>
