<svg width="57" height="61" viewBox="0 0 57 61" fill="none" xmlns="http://www.w3.org/2000/svg">
<path d="M34.2048 6C22.9679 6 25.6669 23.3333 28.4211 32H32.5519C37.7849 23.3333 45.4417 6 34.2048 6Z" fill="#75C0FA"/>
<path d="M29.3124 34.031C-26.6878 18.5291 13.8122 -32.9715 30.8124 32.031L29.3124 34.031Z" fill="white"/>
<path d="M0.312443 21.5293C0.312443 27.5293 8.31244 30.5293 8.31244 31.0293L6.31244 33.0293C3.64578 30.196 -1.28756 23.9293 0.312443 21.5293Z" fill="#4B4E52"/>
<path d="M44.8125 53.0289L40.8125 47.031V46.5303L39.3125 47.0293L43.8125 54.0289V58.5289H44.8125V53.0289Z" fill="#4B4E52"/>
<path d="M33.1236 53.9213L33.7197 47.8846L33.9976 47.6245L32.6956 46.7886L31.8852 53.7107L29.3872 56.0487L30.0706 56.7788L33.1236 53.9213Z" fill="#4B4E52"/>
<path d="M27.8125 54.5293L28.8125 50.0293H29.8125L28.8125 55.0293L23.3125 58.0293L22.8125 57.0293L27.8125 54.5293Z" fill="#4B4E52"/>
<path d="M36.3125 60.0293V50.5293L37.3125 50.0293V60.0293H36.3125Z" fill="#4B4E52"/>
<path d="M44.8879 15C41.0627 15 41.8451 25 42.7145 30H44.0189C42.2785 23.3333 43.0064 16.25 44.8879 16.25C46.4817 15.8333 48.7131 15 44.8879 15Z" fill="#FAE86E"/>
<path d="M56.3124 28.0292C48.7124 20.4292 47.1457 26.5292 47.3124 30.5292C47.6457 34.3626 48.3125 39.8293 48.3125 31.0293C48.3125 22.2293 52.9792 26.0293 55.3125 29.0293C55.8125 29.0293 56.7125 28.8293 56.3124 28.0292Z" fill="#FAE86E"/>
<path d="M14.8125 29.0285C18.3125 32.0293 25.4792 32.3618 29.3125 32.5285V51.0293C13.3125 55.0293 5.8125 47.0293 4.8125 40.5285C4.8125 29.0285 10.1792 25.056 14.8125 29.0285Z" fill="#FAE86E"/>
<path d="M23.8125 40.0293C23.8125 27.6293 36.9792 30.0298 43.3125 33.0298C44.3125 32.1965 48.1364 33.1389 45.8125 39.5295C43.8125 45.0293 40.1458 50.0295 37.3125 51.0295C32.8125 52.5294 23.8125 52.4293 23.8125 40.0293Z" fill="#23272A"/>
<path d="M20.8123 31.6201C12.4123 40.0201 16.6457 48.7483 19.8123 52.0624C15.0784 51.7923 11.5391 50.1908 9.08003 48.0293C7.4908 41.8268 5.98265 32.5293 15.3123 29.4219C16.7826 30.4856 18.7491 31.1707 20.8123 31.6201Z" fill="#23272A"/>
<path d="M51.3125 36.0293C51.3125 39.6191 48.4024 42.5293 44.8125 42.5293C41.2226 42.5293 38.3125 39.6191 38.3125 36.0293C38.3125 32.4394 41.2226 29.5293 44.8125 29.5293C48.4024 29.5293 51.3125 32.4394 51.3125 36.0293Z" fill="#FAAF2F"/>
<path d="M48.2791 36.2863C47.9247 37.6208 47.2046 38.5876 46.6708 38.4458C46.1371 38.304 45.9917 37.1073 46.3462 35.7729C46.7006 34.4385 47.4207 33.4716 47.9545 33.6134C48.4883 33.7552 48.6336 34.9519 48.2791 36.2863Z" fill="white"/>
<path d="M48.0179 37.2397C47.7964 38.0598 47.2561 38.6305 46.8113 38.5143C46.3665 38.3981 46.1855 37.6391 46.4071 36.8189C46.6286 35.9988 47.1689 35.4281 47.6137 35.5443C48.0585 35.6605 48.2395 36.4195 48.0179 37.2397Z" fill="#23272A"/>
</svg>
