<svg width="544" height="492" viewBox="0 0 544 492" fill="none" xmlns="http://www.w3.org/2000/svg">
<path d="M196.922 318.874C438.996 25.2327 605.581 305.357 196.07 348.032L196.922 318.874Z" stroke="#AF74EE" stroke-width="3"/>
<path d="M192.7 327.821C346.575 143.406 455.39 321.734 192.329 346.274L192.7 327.821Z" fill="#AF74EE" stroke="#AF74EE" stroke-width="3"/>
<path d="M177.68 314.126L198.796 342.12C284.613 270.239 328.682 223.555 323.775 150.084C457.263 32.0401 183.906 -77.9219 177.68 314.126Z" stroke="#E6BEF8" stroke-width="3"/>
<path d="M179.803 324.753L193.672 343.14C250.038 295.928 297.552 193.933 294.329 145.676C382.421 32.2853 176.3 36.2039 179.803 324.753Z" fill="#E6BEF8" stroke="#E6BEF8" stroke-width="3"/>
<path d="M67.7083 413.542C66.197 409.617 65.9333 405.323 66.956 401.246C67.977 397.166 70.2339 393.501 73.4179 390.749C92.7296 373.821 120.102 361.922 121.109 361.419C124.186 360.12 127.652 360.076 130.76 361.298C133.869 362.52 136.372 364.91 137.734 367.955C139.029 371.002 139.068 374.435 137.842 377.51C136.616 380.585 134.223 383.054 131.185 384.38C120.473 389.363 110.144 395.133 100.286 401.643H109.354C112.695 401.643 115.899 402.967 118.26 405.325C120.622 407.681 121.949 410.879 121.949 414.213C121.949 417.546 120.622 420.744 118.26 423.101C115.899 425.459 112.695 426.783 109.354 426.783H87.02C82.837 426.788 78.7496 425.524 75.302 423.159C71.8528 420.794 69.2046 417.441 67.7083 413.542Z" fill="#4550BF"/>
<path d="M45.0802 269.697C43.0473 268.84 41.2355 267.533 39.7703 265.866C38.3051 264.199 37.2217 262.213 36.598 260.048C35.6737 257.081 35.6446 253.874 36.5136 250.838C37.3841 247.803 39.1114 245.079 41.4765 243.016C54.0028 232.05 97.4432 227.904 112.45 221.08C113.867 220.427 115.389 220.062 116.927 220.007C118.464 219.952 119.989 220.207 121.414 220.758C122.839 221.311 124.138 222.148 125.233 223.223C126.33 224.297 127.202 225.588 127.801 227.022C128.402 228.457 128.716 230.004 128.728 231.579C128.74 233.154 128.447 234.724 127.869 236.2C127.158 238.02 126.441 239.031 125.363 240.183C124.283 241.335 75.6354 249.842 74.2188 250.495C69.5565 251.719 66.8573 252.699 61.9496 253.924C74.8777 256.06 80.3534 253.924 92.3772 257.107L90.1789 259.509C92.6786 260.932 94.5572 263.257 95.4588 266.046C96.3626 268.835 96.2257 271.896 95.0783 274.647C93.9293 277.397 91.8472 279.648 89.2263 280.975C86.6054 282.301 83.1266 281.742 80.3534 280.975C64.203 274.87 71.0288 277.924 50.4166 271.802C48.4357 271.213 46.6688 270.332 45.0802 269.697Z" fill="#4550BF"/>
<path d="M93.4025 402.815C88.5628 399.966 83.3688 397.767 77.9531 396.278" stroke="#23272A" stroke-width="2" stroke-linecap="round" stroke-linejoin="round"/>
<path d="M103.5 244L81 260.5L108.5 269.5L114 255L103.5 244Z" fill="#698EFF"/>
<path d="M81.8148 336.781C84.5151 336.789 87.1348 335.857 89.2205 334.143C91.3045 332.43 92.7252 330.043 93.234 327.395C97.2642 306.613 105.493 294.713 118.255 280.97C120.348 278.702 121.454 275.699 121.328 272.618C121.201 269.538 119.854 266.633 117.584 264.545C115.311 262.455 112.302 261.352 109.216 261.478C106.129 261.604 103.219 262.948 101.127 265.215C86.3489 281.137 75.4336 297.059 70.3958 323.037C69.8517 326.056 70.5133 329.167 72.2396 331.704C73.9659 334.241 76.6192 336.005 79.6318 336.613L81.8148 336.781Z" fill="#4550BF"/>
<path d="M101.968 302.255C96.2584 299.574 88.1979 303.261 78.7939 311.809" stroke="#23272A" stroke-width="2" stroke-linecap="round" stroke-linejoin="round"/>
<path d="M96.4252 187.612C96.1766 189.316 96.3076 191.053 96.808 192.701C97.3085 194.348 98.1666 195.866 99.3202 197.146C100.474 198.425 101.896 199.436 103.487 200.105C105.075 200.775 106.791 201.087 108.516 201.02H115.401C119.114 200.972 122.686 199.589 125.462 197.127C128.236 194.665 130.031 191.287 130.515 187.612L133.033 163.981C133.28 162.277 133.149 160.54 132.649 158.892C132.148 157.245 131.292 155.727 130.138 154.448C128.983 153.168 127.562 152.158 125.972 151.488C124.383 150.818 122.666 150.506 120.943 150.573H114.058C110.345 150.622 106.773 152.004 103.997 154.466C101.221 156.929 99.4277 160.306 98.9441 163.981L96.4252 187.612Z" fill="#A04EFF"/>
<path d="M112.209 169.679H124.468L126.987 146.383C127.665 141.075 130.219 136.182 134.191 132.587C138.162 128.992 143.289 126.93 148.649 126.774H184.082C186.52 126.729 188.939 127.21 191.172 128.183C193.407 129.156 195.406 130.598 197.031 132.411C198.657 134.225 199.872 136.366 200.593 138.691C201.315 141.015 201.525 143.467 201.211 145.88L198.692 169.679H215.317L218.172 144.204C218.585 141.04 218.306 137.825 217.357 134.779C216.408 131.733 214.81 128.927 212.672 126.555C210.534 124.183 207.908 122.3 204.974 121.036C202.039 119.772 198.865 119.157 195.669 119.232H142.94C136.068 119.376 129.475 121.975 124.36 126.557C119.245 131.139 115.947 137.401 115.064 144.204L112.209 169.679Z" fill="#A04EFF"/>
<path d="M101.964 187.612C101.745 189.311 101.898 191.037 102.41 192.671C102.921 194.306 103.781 195.811 104.928 197.084C106.076 198.357 107.485 199.368 109.06 200.047C110.636 200.726 112.34 201.058 114.055 201.02H121.108C124.792 200.932 128.323 199.532 131.064 197.073C133.805 194.614 135.575 191.259 136.053 187.612L138.572 163.981C138.821 162.277 138.69 160.54 138.189 158.892C137.689 157.245 136.831 155.727 135.677 154.448C134.523 153.168 133.101 152.158 131.512 151.488C129.922 150.818 128.206 150.506 126.481 150.573H119.596C115.893 150.656 112.34 152.05 109.573 154.506C106.803 156.962 105 160.32 104.483 163.981L101.964 187.612Z" fill="#23272A"/>
<path d="M206.109 200.815C214.303 173.021 199.311 144.134 172.62 136.294C145.928 128.454 117.646 144.629 109.451 172.422C101.254 200.216 116.247 229.103 142.939 236.943C169.63 244.784 197.912 228.609 206.109 200.815Z" fill="#9DB7FF"/>
<path d="M95.25 264.038C94.9074 271.64 96.1215 279.232 98.8185 286.35C101.514 293.47 105.636 299.965 110.933 305.438C116.231 310.914 122.59 315.253 129.623 318.191C136.658 321.129 144.218 322.606 151.842 322.53C184.42 322.53 211.96 296.385 213.135 264.038C214.311 231.691 205.915 205.545 157.215 205.545C108.516 205.545 96.5934 231.691 95.25 264.038Z" fill="#9DB7FF"/>
<path d="M183.243 236.551C186.434 246.439 191.808 258.171 196.174 255.49C200.54 252.808 199.028 243.59 194.83 236.551C190.632 229.512 183.243 236.551 183.243 236.551Z" fill="#23272A"/>
<path d="M177.365 280.3C177.472 280.077 177.623 279.877 177.808 279.715C177.994 279.551 178.211 279.427 178.446 279.348C178.681 279.269 178.93 279.239 179.176 279.259C179.423 279.279 179.663 279.348 179.883 279.462C188.426 283.414 195.949 289.26 201.882 296.557C201.195 297.687 200.408 298.751 199.531 299.741C193.867 292.56 186.627 286.769 178.372 282.814C178.134 282.723 177.917 282.584 177.736 282.405C177.554 282.227 177.412 282.013 177.318 281.776C177.223 281.54 177.178 281.287 177.187 281.034C177.195 280.779 177.255 280.529 177.365 280.3Z" fill="#23272A"/>
<path d="M96.426 332.423C96.0834 340.136 97.3193 347.837 100.058 355.058C102.795 362.278 106.98 368.865 112.356 374.417C117.729 379.968 124.181 384.369 131.316 387.351C138.453 390.331 146.123 391.829 153.857 391.754C168.904 391.847 183.391 386.06 194.219 375.631C205.047 365.199 211.354 350.955 211.792 335.943C212.464 305.272 187.611 278.959 156.04 277.283C124.47 275.607 97.9373 300.076 96.426 332.423Z" fill="#9DB7FF"/>
<path d="M131.185 378.011C127.154 412.872 152.679 440.693 187.105 439.855C221.53 439.017 249.406 411.698 252.597 379.016C255.787 346.334 231.438 318.848 198.356 317.842C165.274 316.837 135.215 343.653 131.185 378.011Z" fill="#9DB7FF"/>
<path d="M126.418 272.063L116.67 279.393L119.235 264.209L127.958 266.303L126.418 272.063Z" fill="white"/>
<path d="M130.293 273.264L120.341 271.172C120.341 280.795 114.404 282.503 111.436 282.154C107.944 281.457 100.331 279.435 97.817 276.925C94.6742 273.787 92.0551 252.346 98.8646 245.548C104.312 240.109 107.769 239.447 108.817 239.795C124.357 244.502 156.209 253.434 159.103 253.915C162.245 254.438 163.119 260.19 163.293 263.328V277.971C163.293 280.062 162.245 281.573 161.722 282.154C158.579 285.641 151.35 292.404 147.579 291.567C134.588 291.567 130.642 279.365 130.293 273.264Z" fill="white"/>
<path d="M130.21 273.276L120.223 271.178C120.223 280.831 114.265 282.545 111.286 282.195C107.782 281.495 100.143 279.467 97.6197 276.949C94.4657 273.801 92.3621 249.668 98.671 245.471C103.132 242.504 113.447 248.094 118.646 249.668C134.24 254.39 146.229 258.104 149.133 258.587C152.287 259.111 155.266 265.407 155.441 268.555L155.441 279.572C155.441 283.733 154.052 288.093 150.644 290.481C149.673 291.161 148.615 291.638 147.557 291.638C134.521 291.638 130.561 279.397 130.21 273.276Z" fill="#771FE2"/>
<path d="M214.31 358.234C214.112 358.544 213.838 358.797 213.516 358.973C213.191 359.149 212.83 359.242 212.463 359.24H211.623C211.159 358.99 210.812 358.571 210.656 358.07C210.5 357.569 210.545 357.026 210.783 356.558C216.34 346.517 224.229 337.955 233.789 331.586L236.812 334.268C227.375 340.197 219.625 348.452 214.31 358.234Z" fill="#23272A"/>
<path d="M74.2582 407.173C75.877 405.279 77.961 403.834 80.3036 402.983C82.5875 402.026 85.0493 401.568 87.5245 401.642H108.012V426.782H87.0208C83.8872 426.79 80.789 426.103 77.9527 424.771C76.3422 424.062 74.9232 422.979 73.8149 421.613C72.7066 420.249 71.9391 418.638 71.5781 416.919C71.217 415.199 71.2724 413.418 71.7376 411.723C72.2044 410.027 73.0676 408.468 74.2582 407.173Z" fill="white"/>
<path d="M107.341 401.474L110.699 397.787C111.185 397.306 111.761 396.924 112.395 396.666C113.029 396.406 113.709 396.275 114.394 396.278C118.088 396.446 121.783 398.29 125.645 401.642C127.386 403.185 129.549 404.177 131.858 404.491C138.407 405.161 143.613 407.34 145.628 412.368C147.644 417.396 142.606 426.782 135.217 426.782H109.188C112.543 426.782 115.764 425.463 118.154 423.111C120.542 420.758 121.905 417.56 121.951 414.212C121.951 410.833 120.605 407.593 118.212 405.205C115.818 402.816 112.572 401.474 109.188 401.474H107.341Z" fill="#25CE74"/>
<path d="M110.698 397.787C111.183 397.306 111.761 396.924 112.394 396.666C113.029 396.406 113.707 396.275 114.392 396.278C118.087 396.446 121.781 398.29 125.643 401.642C127.386 403.185 129.548 404.177 131.857 404.491C138.406 405.161 143.612 407.34 145.627 412.368C146.581 414.862 146.52 417.629 145.459 420.078C146.466 416.223 144.451 411.698 137.902 409.686C131.353 407.675 126.483 407.005 120.941 402.647C115.4 398.29 110.698 397.787 108.851 399.966L110.698 397.787Z" fill="#808AFF"/>
<path d="M206.919 381.53C203.057 414.38 227.239 440.693 259.817 439.855C292.395 439.017 318.759 413.206 321.614 382.368C324.469 351.53 301.631 325.552 270.396 324.546C239.161 323.54 210.782 348.848 206.919 381.53Z" fill="#9DB7FF"/>
<path d="M276.614 386.055C276.441 390.686 276.951 395.315 278.125 399.798C278.201 400.039 278.226 400.296 278.197 400.547C278.171 400.799 278.092 401.043 277.966 401.263C277.84 401.484 277.668 401.675 277.465 401.828C277.262 401.979 277.029 402.088 276.782 402.145H276.278C275.863 402.16 275.457 402.036 275.121 401.793C274.787 401.55 274.543 401.201 274.431 400.804C273.118 396.002 272.55 391.028 272.752 386.055C273.255 365.44 286.018 347.507 304.49 337.786C305.523 338.651 306.478 339.605 307.345 340.635C289.544 349.518 277.118 366.446 276.614 386.055Z" fill="#23272A"/>
<path d="M276.778 386.055C275.939 416.391 303.982 440.693 338.744 439.855C373.505 439.017 422.419 382.992 400.335 341.603C379.723 310.986 372.161 334.602 338.744 333.764C305.326 332.926 277.618 356.055 276.778 386.055Z" fill="#9DB7FF"/>
<path d="M245.728 324.904C247.761 324.047 249.58 322.757 251.059 321.123C252.538 319.489 253.642 317.551 254.291 315.446C255.25 312.559 255.322 309.453 254.498 306.524C253.673 303.596 251.992 300.98 249.668 299.014C237.36 288.56 223.566 279.987 208.735 273.577C207.335 272.964 205.827 272.631 204.299 272.598C202.77 272.565 201.251 272.832 199.826 273.385C198.402 273.94 197.099 274.767 195.996 275.823C194.891 276.878 194.007 278.14 193.392 279.537C192.775 280.935 192.442 282.438 192.409 283.963C192.376 285.489 192.645 287.007 193.199 288.429C193.753 289.851 194.584 291.15 195.64 292.252C196.698 293.353 197.963 294.237 199.363 294.851C206.328 297.823 213.029 301.379 219.395 305.477C206.512 307.718 193.875 311.186 181.657 315.834L181.502 315.899C178.998 317.311 177.099 319.588 176.165 322.302C175.229 325.015 175.324 327.977 176.428 330.627C177.534 333.275 179.574 335.428 182.162 336.677C184.75 337.927 187.707 338.187 190.475 337.406C206.615 331.278 223.547 327.471 240.763 326.099C242.466 325.943 244.14 325.541 245.728 324.904Z" fill="#4550BF"/>
<path d="M234.854 271.412C236.887 270.556 238.706 269.265 240.185 267.631C241.664 265.997 242.768 264.059 243.417 261.954C244.376 259.067 244.448 255.961 243.624 253.033C242.799 250.105 241.118 247.489 238.794 245.522C226.486 235.068 212.692 226.495 197.861 220.086C196.461 219.472 194.953 219.139 193.425 219.106C191.896 219.073 190.377 219.34 188.952 219.893C187.528 220.448 186.225 221.276 185.122 222.331C184.017 223.387 183.133 224.648 182.518 226.045C181.901 227.443 181.568 228.946 181.535 230.472C181.502 231.997 181.771 233.515 182.325 234.937C182.879 236.359 183.71 237.658 184.766 238.76C185.824 239.861 187.089 240.745 188.489 241.359C195.454 244.331 202.155 247.887 208.521 251.985C195.638 254.227 183.001 257.695 170.783 262.342L170.628 262.408C168.124 263.819 166.225 266.096 165.291 268.81C164.355 271.523 164.45 274.486 165.554 277.135C166.66 279.784 168.7 281.936 171.288 283.186C173.876 284.436 176.833 284.695 179.601 283.915C195.741 277.787 212.673 273.98 229.889 272.607C231.592 272.451 233.266 272.049 234.854 271.412Z" fill="#4550BF"/>
<path d="M175.014 158.618C174.846 151.243 170.48 145.545 164.938 145.545C159.397 145.545 154.863 151.746 154.527 159.288C154.191 166.83 158.557 173.031 164.435 172.864C170.312 172.696 175.014 166.327 175.014 158.618Z" fill="white"/>
<path d="M138.741 158.617C141.092 151.913 139.413 146.55 135.215 146.55C131.017 146.55 125.643 152.248 122.956 159.287C120.269 166.327 121.781 172.025 126.315 171.857C130.849 171.69 136.39 165.824 138.741 158.617Z" fill="white"/>
<path d="M133.931 166.491C134.596 163.688 132.428 162.387 130.26 161.953C127.636 161.953 123.69 162.037 122.021 164.989C120.721 167.591 122.455 171.928 126.06 171.928C128.684 171.928 132.5 169.443 133.931 166.491Z" fill="#23272A"/>
<path d="M171.885 168.459C172.55 165.656 169.757 163.688 167.589 163.254C164.965 163.254 160.113 164.206 158.443 167.158C156.774 170.109 160.766 173.23 163.389 173.23C166.013 173.23 170.454 171.411 171.885 168.459Z" fill="#23272A"/>
<path d="M164.938 145.545C169.64 145.545 175.527 150.243 175.094 158.484C170.088 154.114 163.28 150.991 154.541 157.616C155.842 148.942 160.908 145.545 164.938 145.545Z" fill="#3442D9"/>
<path d="M135.213 146.55C138.572 146.55 141.533 150.243 138.931 157.947C130.578 150.899 126.357 156.315 123.458 157.947C126.313 151.578 131.351 146.55 135.213 146.55Z" fill="#3442D9"/>
<path d="M156.876 341.474C157.369 341.29 157.913 341.29 158.409 341.474C158.902 341.659 159.312 342.016 159.562 342.48C159.739 342.949 159.732 343.467 159.546 343.931C159.359 344.395 159.007 344.774 158.555 344.994C137.9 355.385 130.679 373.821 130.679 387.061L126.816 385.218C127.488 370.972 135.549 352.201 156.876 341.474Z" fill="#23272A"/>
<path d="M190.464 187.612C190.216 189.316 190.347 191.053 190.847 192.701C191.348 194.348 192.206 195.866 193.359 197.146C194.513 198.425 195.935 199.436 197.526 200.105C199.114 200.775 200.83 201.087 202.555 201.02H209.44C213.153 200.972 216.725 199.589 219.501 197.127C222.275 194.665 224.07 191.287 224.554 187.612L227.073 163.981C227.319 162.277 227.188 160.54 226.688 158.892C226.188 157.245 225.331 155.727 224.177 154.448C223.022 153.168 221.601 152.158 220.011 151.488C218.423 150.818 216.705 150.506 214.982 150.573H208.097C204.384 150.622 200.812 152.004 198.036 154.466C195.26 156.929 193.467 160.306 192.983 163.981L190.464 187.612Z" fill="#23272A"/>
<path d="M198.186 187.612C197.939 189.316 198.07 191.053 198.57 192.701C199.071 194.348 199.929 195.866 201.082 197.145C202.236 198.425 203.658 199.435 205.247 200.105C206.836 200.775 208.554 201.087 210.277 201.02C213.961 200.931 217.492 199.531 220.233 197.073C222.974 194.614 224.743 191.259 225.222 187.612L227.909 163.98C228.099 162.287 227.927 160.572 227.405 158.95C226.883 157.327 226.023 155.834 224.881 154.567C223.739 153.3 222.34 152.289 220.779 151.601C219.217 150.912 217.526 150.562 215.818 150.572C212.105 150.621 208.535 152.004 205.759 154.466C202.983 156.928 201.19 160.306 200.705 163.98L198.186 187.612Z" fill="#A04EFF"/>
<path d="M153.635 328.444C153.626 326.417 154.166 324.427 155.196 322.683C157.668 318.836 161.138 315.728 165.235 313.691C162.48 311.715 159.971 309.416 157.76 306.846C157.175 306.101 156.871 305.174 156.901 304.229C156.933 303.283 157.298 302.378 157.931 301.675C158.597 301.015 159.491 300.634 160.429 300.608C161.367 300.583 162.28 300.914 162.981 301.536C165.203 303.413 167.531 305.163 169.954 306.774C174.923 310.232 180.914 311.925 186.962 311.581C187.885 311.521 188.799 311.792 189.538 312.348C190.277 312.905 190.791 313.706 190.987 314.608L195.865 334.21C196.073 335.12 195.928 336.073 195.459 336.88C194.989 337.688 194.232 338.287 193.337 338.56C187.51 340.302 182.043 339.889 178.369 337.258C173.425 339.158 169.041 342.27 165.618 346.307C163.427 348.875 160.776 350.363 157.925 345.381C155.057 340.198 153.578 334.364 153.635 328.444Z" fill="#698EFF"/>
<path d="M142.761 274.954C142.752 272.927 143.292 270.938 144.323 269.193C146.794 265.346 158.607 261.103 162.705 259.067C162.067 257.353 162.312 257.597 160.84 254.904C159.613 253.434 156.668 253.924 155.687 252.699C155.196 251.72 155.545 250.709 156.178 250.005C156.844 249.346 158.675 249.052 159.613 249.026C160.551 249.001 163.819 250.117 164.52 250.739C167.22 252.454 166.269 251.745 168.692 253.356C173.661 256.814 173.845 256.373 176.088 258.091C177.011 258.031 177.926 258.303 178.664 258.858C179.403 259.415 179.917 260.217 180.113 261.119L184.991 280.721C185.199 281.63 185.054 282.584 184.586 283.391C184.116 284.198 183.358 284.798 182.463 285.07C176.637 286.812 171.169 286.399 167.495 283.769C162.551 285.668 158.167 288.78 154.744 292.817C152.553 295.385 149.902 296.874 147.051 291.891C144.183 286.708 142.705 280.874 142.761 274.954Z" fill="#698EFF"/>
<path d="M116.841 264.948C117.871 266.692 118.411 268.682 118.402 270.709C118.459 276.629 116.98 282.463 114.112 287.646C111.261 292.628 108.61 291.14 106.419 288.572C102.996 284.535 98.612 281.423 93.6679 279.523C89.9938 282.154 84.5266 282.567 78.6999 280.825C77.8049 280.553 77.0476 279.953 76.5776 279.145C76.1091 278.338 75.9641 277.385 76.1725 276.475L81.0499 256.874C81.2459 255.971 81.7605 255.17 82.4994 254.613C83.2376 254.057 84.1523 253.786 85.0755 253.846C91.1232 254.19 99.74 254.585 105.384 255.393L106.802 255.956C110.899 257.993 114.369 261.101 116.841 264.948Z" fill="#698EFF"/>
<path d="M98.1028 320.692C102.296 318.582 106.76 317.058 111.369 316.166C112.254 316.096 113.087 315.726 113.729 315.116C114.372 314.504 114.783 313.693 114.896 312.814C116.182 306.498 118.63 300.474 122.117 295.049C122.268 294.819 122.372 294.563 122.419 294.293C122.467 294.023 122.461 293.747 122.397 293.48C122.335 293.212 122.217 292.962 122.054 292.741C121.89 292.521 121.683 292.337 121.445 292.2C118.422 290.356 112.713 290.524 102.805 298.736C100.884 300.509 99.2918 302.609 98.1028 304.937C92.3933 307.619 89.2026 312.312 89.3706 319.518C89.5385 326.725 96.9273 327.563 96.9273 327.563C96.9273 327.563 97.4311 323.373 98.1028 320.692Z" fill="#698EFF"/>
<path d="M124.299 426.782H103.979C100.639 426.782 97.4352 425.458 95.0741 423.099C92.7114 420.743 91.3848 417.545 91.3848 414.212C91.3848 410.878 92.7114 407.68 95.0741 405.324C97.4352 402.966 100.639 401.642 103.979 401.642H115.398C117.76 401.642 120.023 402.577 121.692 404.243C123.362 405.909 124.299 408.168 124.299 410.524V426.949V426.782Z" fill="#25CE74"/>
<path d="M194.831 194.315C181.564 207.388 164.94 207.388 157.215 207.388" stroke="#23272A" stroke-width="2" stroke-linecap="round" stroke-linejoin="round"/>
<path d="M154.697 210.237H159.902C161.477 210.237 162.757 208.962 162.757 207.388V207.321C162.757 205.748 161.477 204.472 159.902 204.472H154.697C153.12 204.472 151.842 205.748 151.842 207.321V207.388C151.842 208.962 153.12 210.237 154.697 210.237Z" fill="white"/>
<path d="M170.808 322.073C171.017 322.563 171.022 323.116 170.822 323.611C170.622 324.105 170.233 324.502 169.741 324.71C158.459 329.494 154.737 334.896 155.034 338.595C154.663 337.295 154.447 335.93 154.165 334.411C153.991 333.286 154.094 332.137 154.462 331.062C154.829 329.986 155.454 329.015 156.28 328.233C159.84 325.227 163.881 322.838 168.231 321.162C168.697 320.963 169.22 320.945 169.698 321.114C170.176 321.283 170.572 321.625 170.808 322.073Z" fill="#23272A"/>
<path d="M159.935 268.586C160.144 269.077 160.149 269.63 159.949 270.124C159.749 270.619 159.36 271.015 158.868 271.224C147.586 276.008 143.864 281.41 144.161 285.108C143.79 283.808 143.574 282.443 143.292 280.924C143.118 279.799 143.221 278.651 143.589 277.575C143.956 276.5 144.581 275.528 145.407 274.746C148.967 271.74 153.008 269.351 157.358 267.676C157.824 267.476 158.347 267.458 158.824 267.627C159.303 267.796 159.699 268.138 159.935 268.586Z" fill="#23272A"/>
<path d="M101.23 264.34C101.021 264.831 101.016 265.384 101.216 265.879C101.416 266.373 101.805 266.77 102.297 266.978C113.58 271.762 117.301 277.164 117.004 280.862C117.375 279.563 117.591 278.197 117.873 276.678C118.047 275.554 117.944 274.405 117.576 273.329C117.209 272.254 116.584 271.283 115.759 270.501C112.198 267.494 108.157 265.105 103.807 263.43C103.341 263.231 102.818 263.213 102.341 263.382C101.862 263.55 101.466 263.892 101.23 264.34Z" fill="#23272A"/>
<path d="M102.302 305.608L103.142 304.267C103.755 303.377 104.558 302.634 105.493 302.088C115.737 297.06 116.912 299.574 118.088 302.758L117.078 305.272C113.72 301.92 110.865 302.088 102.805 306.446C101.125 307.284 102.302 305.608 102.302 305.608Z" fill="#23272A"/>
<path d="M119.959 449.097C118.448 445.171 118.184 440.877 119.207 436.8C120.228 432.72 122.485 429.055 125.669 426.303C144.981 409.375 172.353 397.476 173.36 396.973C176.437 395.674 179.903 395.63 183.011 396.852C186.12 398.074 188.623 400.464 189.985 403.509C191.28 406.556 191.319 409.989 190.093 413.064C188.867 416.14 186.474 418.608 183.436 419.934C172.724 424.917 162.395 430.687 152.537 437.197H161.605C164.946 437.197 168.15 438.521 170.511 440.879C172.873 443.236 174.2 446.433 174.2 449.767C174.2 453.1 172.873 456.298 170.511 458.655C168.15 461.013 164.946 462.337 161.605 462.337H139.271C135.088 462.342 131.001 461.078 127.553 458.713C124.104 456.349 121.456 452.995 119.959 449.097Z" fill="#4550BF"/>
<path d="M185.201 449.097C183.689 445.171 183.426 440.877 184.448 436.8C185.469 432.72 187.726 429.055 190.91 426.303C210.222 409.375 237.594 397.476 238.602 396.973C241.678 395.674 245.144 395.63 248.252 396.852C251.361 398.074 253.865 400.464 255.227 403.509C256.521 406.556 256.56 409.989 255.334 413.064C254.108 416.14 251.715 418.608 248.677 419.934C237.965 424.917 227.636 430.687 217.779 437.197H226.847C230.187 437.197 233.391 438.521 235.752 440.879C238.115 443.236 239.441 446.433 239.441 449.767C239.441 453.1 238.115 456.298 235.752 458.655C233.391 461.013 230.187 462.337 226.847 462.337H204.512C200.329 462.342 196.242 461.078 192.794 458.713C189.345 456.349 186.697 452.995 185.201 449.097Z" fill="#4550BF"/>
<path d="M255.104 449.097C253.592 445.171 253.329 440.877 254.352 436.8C255.373 432.72 257.629 429.055 260.813 426.303C280.125 409.375 307.497 397.476 308.505 396.973C311.581 395.674 315.047 395.63 318.156 396.852C321.264 398.074 323.768 400.464 325.13 403.509C326.425 406.556 326.463 409.989 325.237 413.064C324.011 416.14 321.618 418.608 318.581 419.934C307.868 424.917 297.539 430.687 287.682 437.197H296.75C300.09 437.197 303.294 438.521 305.655 440.879C308.018 443.236 309.345 446.433 309.345 449.767C309.345 453.1 308.018 456.298 305.655 458.655C303.294 461.013 300.09 462.337 296.75 462.337H274.416C270.232 462.342 266.145 461.078 262.698 458.713C259.248 456.349 256.6 452.995 255.104 449.097Z" fill="#4550BF"/>
<path d="M145.653 438.37C140.814 435.521 135.62 433.322 130.204 431.833" stroke="#23272A" stroke-width="2" stroke-linecap="round" stroke-linejoin="round"/>
<path d="M210.896 438.37C206.056 435.521 200.862 433.322 195.446 431.833" stroke="#23272A" stroke-width="2" stroke-linecap="round" stroke-linejoin="round"/>
<path d="M280.797 438.37C275.957 435.521 270.763 433.322 265.348 431.833" stroke="#23272A" stroke-width="2" stroke-linecap="round" stroke-linejoin="round"/>
<path d="M126.509 442.728C128.128 440.835 130.212 439.39 132.555 438.538C134.838 437.581 137.3 437.124 139.775 437.198H160.263V462.338H139.272C136.138 462.346 133.04 461.659 130.204 460.326C128.593 459.617 127.174 458.535 126.066 457.169C124.958 455.805 124.19 454.194 123.829 452.474C123.468 450.755 123.523 448.973 123.989 447.279C124.455 445.583 125.319 444.024 126.509 442.728Z" fill="white"/>
<path d="M191.75 442.728C193.369 440.835 195.453 439.39 197.796 438.538C200.08 437.581 202.541 437.124 205.017 437.198H225.504V462.338H204.513C201.379 462.346 198.281 461.659 195.445 460.326C193.834 459.617 192.415 458.535 191.307 457.169C190.199 455.805 189.431 454.194 189.07 452.474C188.709 450.755 188.765 448.973 189.23 447.279C189.697 445.583 190.56 444.024 191.75 442.728Z" fill="white"/>
<path d="M261.652 442.728C263.271 440.835 265.355 439.39 267.697 438.538C269.981 437.581 272.443 437.124 274.918 437.198H295.405V462.338H274.414C271.281 462.346 268.183 461.659 265.346 460.326C263.736 459.617 262.317 458.535 261.208 457.169C260.1 455.805 259.333 454.194 258.972 452.474C258.611 450.755 258.666 448.973 259.131 447.279C259.598 445.583 260.461 444.024 261.652 442.728Z" fill="white"/>
<path d="M159.592 437.029L162.95 433.342C163.436 432.861 164.012 432.479 164.646 432.221C165.279 431.961 165.96 431.83 166.645 431.834C170.339 432.001 174.034 433.845 177.896 437.197C179.637 438.74 181.8 439.733 184.109 440.046C190.658 440.716 195.864 442.895 197.879 447.923C199.895 452.951 194.857 462.337 187.468 462.337H161.439C164.794 462.337 168.015 461.018 170.405 458.666C172.793 456.313 174.156 453.115 174.202 449.767C174.202 446.388 172.856 443.148 170.463 440.76C168.069 438.372 164.823 437.029 161.439 437.029H159.592Z" fill="#25CE74"/>
<path d="M224.835 437.029L228.194 433.342C228.679 432.861 229.255 432.479 229.89 432.221C230.523 431.961 231.203 431.83 231.888 431.834C235.582 432.001 239.277 433.845 243.139 437.197C244.881 438.74 247.043 439.733 249.352 440.046C255.902 440.716 261.107 442.895 263.123 447.923C265.138 452.951 260.1 462.337 252.711 462.337H226.682C230.037 462.337 233.258 461.018 235.648 458.666C238.036 456.313 239.399 453.115 239.445 449.767C239.445 446.388 238.1 443.148 235.707 440.76C233.312 438.372 230.066 437.029 226.682 437.029H224.835Z" fill="#25CE74"/>
<path d="M294.736 437.029L298.095 433.342C298.58 432.861 299.156 432.479 299.791 432.221C300.424 431.961 301.104 431.83 301.789 431.834C305.484 432.001 309.178 433.845 313.04 437.197C314.782 438.74 316.945 439.733 319.254 440.046C325.803 440.716 331.009 442.895 333.024 447.923C335.039 452.951 330.001 462.337 322.612 462.337H296.583C299.939 462.337 303.16 461.018 305.549 458.666C307.937 456.313 309.301 453.115 309.346 449.767C309.346 446.388 308.001 443.148 305.608 440.76C303.213 438.372 299.967 437.029 296.583 437.029H294.736Z" fill="#25CE74"/>
<path d="M162.947 433.342C163.432 432.861 164.01 432.479 164.643 432.221C165.278 431.961 165.956 431.83 166.641 431.834C170.336 432.001 174.03 433.845 177.892 437.197C179.636 438.74 181.797 439.733 184.106 440.046C190.655 440.716 195.861 442.895 197.876 447.923C198.83 450.417 198.769 453.184 197.708 455.633C198.715 451.778 196.7 447.253 190.151 445.242C183.602 443.23 178.732 442.56 173.19 438.202C167.649 433.845 162.947 433.342 161.1 435.521L162.947 433.342Z" fill="#808AFF"/>
<path d="M228.191 433.342C228.676 432.861 229.254 432.479 229.887 432.221C230.522 431.961 231.2 431.83 231.885 431.834C235.58 432.001 239.274 433.845 243.137 437.197C244.88 438.74 247.041 439.733 249.35 440.046C255.899 440.716 261.105 442.895 263.12 447.923C264.074 450.417 264.013 453.184 262.952 455.633C263.96 451.778 261.944 447.253 255.395 445.242C248.846 443.23 243.976 442.56 238.435 438.202C232.893 433.845 228.191 433.342 226.344 435.521L228.191 433.342Z" fill="#808AFF"/>
<path d="M298.091 433.342C298.577 432.861 299.154 432.479 299.787 432.221C300.422 431.961 301.101 431.83 301.786 431.834C305.48 432.001 309.175 433.845 313.037 437.197C314.78 438.74 316.941 439.733 319.25 440.046C325.799 440.716 331.005 442.895 333.02 447.923C333.974 450.417 333.914 453.184 332.852 455.633C333.86 451.778 331.845 447.253 325.296 445.242C318.746 443.23 313.877 442.56 308.335 438.202C302.793 433.845 298.091 433.342 296.244 435.521L298.091 433.342Z" fill="#808AFF"/>
<path d="M176.55 462.337H156.23C152.89 462.337 149.686 461.013 147.325 458.655C144.962 456.299 143.636 453.101 143.636 449.767C143.636 446.434 144.962 443.236 147.325 440.879C149.686 438.521 152.89 437.197 156.23 437.197H167.649C170.01 437.197 172.274 438.132 173.943 439.798C175.613 441.464 176.55 443.724 176.55 446.08V462.505V462.337Z" fill="#25CE74"/>
<path d="M241.793 462.337H221.474C218.133 462.337 214.929 461.013 212.568 458.655C210.206 456.299 208.879 453.101 208.879 449.767C208.879 446.434 210.206 443.236 212.568 440.879C214.929 438.521 218.133 437.197 221.474 437.197H232.893C235.254 437.197 237.517 438.132 239.187 439.798C240.856 441.464 241.793 443.724 241.793 446.08V462.505V462.337Z" fill="#25CE74"/>
<path d="M311.694 462.337H291.375C288.035 462.337 284.831 461.013 282.47 458.655C280.107 456.299 278.78 453.101 278.78 449.767C278.78 446.434 280.107 443.236 282.47 440.879C284.831 438.521 288.035 437.197 291.375 437.197H302.794C305.155 437.197 307.419 438.132 309.088 439.798C310.757 441.464 311.694 443.724 311.694 446.08V462.505V462.337Z" fill="#25CE74"/>
<path d="M176.075 138.229C178.961 140.069 180.278 143.159 179.016 145.132C177.754 147.105 175.52 144.552 172.633 142.713C169.747 140.874 167.301 140.445 168.563 138.472C169.825 136.499 173.188 136.39 176.075 138.229Z" fill="#23272A"/>
<path d="M134.147 137.267C137.376 136.127 140.627 136.993 141.409 139.2C142.191 141.407 138.8 141.594 135.571 142.733C132.343 143.873 130.499 145.533 129.717 143.326C128.935 141.119 130.919 138.407 134.147 137.267Z" fill="#23272A"/>
<path d="M130.956 180.032C139.182 176.768 152.011 179.746 157.398 181.644C158.045 181.607 159.009 182.589 157.692 186.809C152.186 199.558 140.171 195.229 134.852 191.471C132.359 188.719 128.09 182.578 130.956 180.032Z" fill="#DC4DA8" stroke="#DC4DA8"/>
<path d="M132.995 188.467C140.841 184.914 148.187 183.98 153.968 185.207C154.615 185.17 157.983 186.138 157.693 186.81C152.187 199.558 140.173 195.229 134.853 191.471C132.36 188.719 132.249 188.805 132.995 188.467Z" fill="#E6BEF8" stroke="#DC4DA8"/>
<path d="M218.882 168.669C217.881 168.118 216.807 167.691 215.673 167.412C215.51 167.65 215.324 167.974 215.191 168.231C213.983 167.963 212.77 167.872 211.552 167.958C211.46 167.685 211.316 167.335 211.199 167.077C210.028 167.182 208.901 167.444 207.837 167.84C205.526 170.746 204.739 173.694 204.798 176.665C206.104 177.77 207.391 178.479 208.671 178.978C209.025 178.57 209.349 178.126 209.635 177.656C209.174 177.444 208.741 177.194 208.326 176.905C208.445 176.833 208.564 176.754 208.675 176.673C211.203 178.064 214.039 178.277 216.715 177.276C216.821 177.373 216.919 177.469 217.025 177.557C216.572 177.781 216.106 177.964 215.619 178.105C215.831 178.613 216.085 179.099 216.374 179.556C217.713 179.254 219.1 178.745 220.55 177.846C221.152 174.457 220.483 171.425 218.882 168.669ZM210.18 175.238C209.393 175.179 208.804 174.418 208.87 173.544C208.936 172.671 209.616 172.004 210.419 172.064C211.214 172.124 211.811 172.886 211.729 173.759C211.663 174.632 210.975 175.298 210.18 175.238ZM215.458 175.634C214.671 175.575 214.081 174.814 214.147 173.94C214.212 173.066 214.893 172.4 215.697 172.46C216.492 172.52 217.089 173.282 217.007 174.154C216.941 175.028 216.261 175.695 215.458 175.634Z" fill="white" fill-opacity="0.35"/>
</svg>
