<svg width="237" height="374" viewBox="0 0 237 374" fill="none" xmlns="http://www.w3.org/2000/svg">
<path d="M82.5719 244.581L131.947 262.864C145.772 263.907 173.883 266.092 175.726 266.487C178.359 266.487 183.132 268.409 186.259 269.946L218.073 290.04C218.073 290.04 229.264 298.564 226.302 303.835C223.335 309.113 217.579 308.618 209.35 306.964C201.12 305.311 175.232 292.346 175.232 292.346C173.751 292.017 173.422 292.676 174.245 293.664L188.893 300.911C188.893 300.911 195.064 311.795 194.818 319.358C194.547 327.692 184.449 335.312 180.548 337.6C176.647 339.888 146.808 338.917 140.225 338.917C133.642 338.917 123.273 331.465 119.488 324.423C115.702 317.381 116.805 290.04 116.805 290.04L86.6865 269.946C84.2178 270.605 76.8115 269.617 73.1907 268.134C60.3532 261.711 69.7345 252.487 76.8115 251.664C75.0011 243.923 80.6518 243.758 82.5719 244.581Z" fill="#698EFF"/>
<rect width="20.409" height="41.834" rx="10.2045" transform="matrix(0.978592 -0.20581 0.205517 0.978654 128.244 326.477)" fill="#698EFF"/>
<rect width="20.409" height="41.834" rx="10.2045" transform="matrix(0.978592 -0.20581 0.205517 0.978654 160.305 326.477)" fill="#698EFF"/>
<ellipse cx="10.2051" cy="7.90516" rx="10.2051" ry="7.90516" transform="matrix(0.936145 0.351614 -0.351155 0.936317 187.76 311.292)" fill="#698EFF"/>
<path d="M66.9854 173.388L74.8854 156.094L87.7229 173.388H66.9854Z" fill="#CC1282"/>
<ellipse cx="75" cy="80" rx="67" ry="80" fill="#E54399"/>
<path d="M142 79.8566C142 124.119 112.003 160 75 160C37.9969 160 8 124.119 8 79.8566C8 35.5947 21.2311 77.5974 52.6198 88.4435C58.9538 90.6321 90.3424 96.0199 142 79.8566Z" fill="#CC1282"/>
<path d="M62.377 307.294C75.807 307.294 76.7506 217.804 75.5436 173.059H78.8353C78.8353 220.099 78.8353 293.459 65.9978 310.094C64.7908 310.149 62.377 309.666 62.377 307.294Z" fill="#E54399"/>
<path d="M99.2692 57.4826C94.6985 55.3836 89.8444 53.8538 84.7776 53C84.1398 54.1029 83.4312 55.5971 82.9351 56.7711C77.546 55.9884 72.1958 55.9884 66.881 56.7711C66.3849 55.5971 65.6408 54.1029 65.0385 53C59.9364 53.8538 55.0823 55.3836 50.5435 57.4826C41.3667 71.0728 38.8865 84.3427 40.1266 97.4348C46.2208 101.882 52.1025 104.586 57.8814 106.365C59.2987 104.443 60.5743 102.38 61.6726 100.21C59.5822 99.4272 57.598 98.4666 55.6847 97.3281C56.1807 96.9725 56.6768 96.5812 57.1374 96.1898C68.6881 101.491 81.1991 101.491 92.608 96.1898C93.104 96.5812 93.5647 96.9725 94.0607 97.3281C92.1473 98.4666 90.1633 99.4272 88.0727 100.21C89.1711 102.38 90.4467 104.443 91.8638 106.365C97.6393 104.586 103.556 101.882 109.619 97.4348C111.142 82.2794 107.206 69.1162 99.2692 57.4826ZM63.267 89.359C59.7947 89.359 56.9602 86.1928 56.9602 82.315C56.9602 78.4372 59.7238 75.2708 63.267 75.2708C66.7747 75.2708 69.6446 78.4372 69.5737 82.315C69.5737 86.1928 66.7747 89.359 63.267 89.359ZM86.5493 89.359C83.0768 89.359 80.2387 86.1928 80.2387 82.315C80.2387 78.4372 83.006 75.2708 86.5493 75.2708C90.057 75.2708 92.9269 78.4372 92.856 82.315C92.856 86.1928 90.0924 89.359 86.5493 89.359Z" fill="white" fill-opacity="0.35"/>
<path d="M104.412 16.3024C95.4661 8.23705 78.2229 5.69459 72.4885 7.89958C70.8388 8.53405 69.2416 9.18583 70.0558 11.6673C70.6782 13.5643 73.3401 14.2429 75.8954 14.4117C78.5334 14.586 81.201 14.497 83.7804 15.0772C87.5267 15.9199 92.2767 17.3044 95.882 19.2024C98.0496 20.3435 102.783 22.4941 105.226 22.6615C109.522 22.9559 107.611 19.1862 104.412 16.3024Z" fill="white" fill-opacity="0.35"/>
<path d="M91.976 21.5893C89.5349 19.0846 84.5584 18.1822 82.8609 18.7999C82.375 18.9768 81.904 19.1592 82.1 19.9061C82.1625 20.1444 82.3308 20.3221 82.559 20.4533C83.9299 21.2412 85.6923 20.8818 87.1928 21.3802C87.9537 21.6329 88.7418 21.9516 89.3942 22.3298C90.0299 22.6982 91.3873 23.3993 92.1194 23.4598C93.3349 23.5602 92.8275 22.4629 91.976 21.5893Z" fill="white" fill-opacity="0.35"/>
<ellipse cx="2.93075" cy="0.976916" rx="2.93075" ry="0.976916" transform="matrix(-0.979773 -0.200111 -0.200111 0.979773 157.559 196.255)" fill="#049240"/>
<ellipse cx="21.4922" cy="18.5614" rx="21.4922" ry="18.5614" transform="matrix(-0.979773 -0.200111 -0.200111 0.979773 175.549 200.927)" fill="#25CE74"/>
<path d="M197.654 253.8C199.219 246.135 194.275 238.652 186.61 237.086L177.517 235.229L171.847 262.987L180.94 264.844C188.605 266.409 196.088 261.465 197.654 253.8Z" fill="#698EFF"/>
<path d="M193.16 251.387C194.132 246.629 191.063 241.985 186.306 241.013L185.348 240.818L181.83 258.046L182.787 258.242C187.544 259.214 192.189 256.144 193.16 251.387Z" fill="#90ADFF"/>
<path d="M95.2376 232.882C96.8032 225.217 104.286 220.272 111.951 221.838L121.044 223.695L115.375 251.452L106.282 249.595C98.6167 248.03 93.6721 240.547 95.2376 232.882Z" fill="#698EFF"/>
<path d="M161.102 266.774C153.995 278.527 117.07 275.787 118.751 259.325L161.102 266.774Z" fill="#4550BF"/>
<path d="M99.4573 231.75C100.483 226.728 105.386 223.489 110.407 224.514L110.886 224.612L107.172 242.798L106.693 242.7C101.671 241.675 98.4316 236.772 99.4573 231.75Z" fill="#90ADFF"/>
<rect width="87.9224" height="56.6611" rx="28.3306" transform="matrix(-0.979773 -0.200111 -0.200111 0.979773 194.242 221.693)" fill="#698EFF"/>
<circle cx="3.90766" cy="3.90766" r="3.90766" transform="matrix(-0.979773 -0.200111 -0.200111 0.979773 166.029 232.883)" fill="#22237E"/>
<circle cx="3.90766" cy="3.90766" r="3.90766" transform="matrix(-0.979773 -0.200111 -0.200111 0.979773 116.258 222.718)" fill="#22237E"/>
<path d="M125.581 219.636L147.752 224.164C149.68 224.557 151.68 225.353 153.013 226.8C154.524 228.44 154.53 230.617 154.083 232.801L151.869 243.644C150.673 249.5 145.074 249.671 142.601 250.224C138.882 250.27 133.118 249.601 125.445 246.72C117.65 243.793 116.691 237.024 117.412 233.218C117.76 231.383 118.069 226.702 119.439 223.295C120.962 219.509 123.844 219.337 125.581 219.636Z" fill="#9DB7FF"/>
<path d="M144.552 255.796C148.766 252.946 156.256 253.09 159.475 253.519C159.831 253.42 160.481 253.862 160.227 256.421C158.61 264.337 151.42 263.326 148.027 261.832C146.324 260.568 143.244 257.591 144.552 255.796Z" fill="#DC4DA8"/>
<path d="M146.632 260.247C150.659 257.041 154.686 255.482 158.066 255.44C158.425 255.331 160.422 255.458 160.331 255.903C158.608 264.342 151.392 263.356 147.999 261.809C146.303 260.485 146.249 260.552 146.632 260.247Z" fill="#CE9BE4"/>
<rect width="8.79224" height="4.88458" rx="2.44229" transform="matrix(-0.979773 -0.200111 -0.200111 0.979773 143.977 238.35)" fill="#698EFF"/>
<rect width="8.79224" height="4.88458" rx="2.44229" transform="matrix(-0.979773 -0.200111 -0.200111 0.979773 131.531 235.809)" fill="#698EFF"/>
<path d="M154.996 213.68C139.797 223.455 98.2136 210.166 130.449 208.838C147.258 212.271 151.216 212.908 154.996 213.68Z" fill="#049240"/>
<path d="M154.039 213.483C139.478 221.881 98.9637 209.22 130.188 208.612L154.039 213.483Z" fill="#62EF8E"/>
<path d="M134.896 209.574C137.643 201.061 146.4 197.713 151.619 196.039C145.412 200.079 140.537 203.364 137.64 210.134L134.896 209.574Z" fill="#62EF8E"/>
<path d="M143.512 211.333C146.254 202.909 149.669 198.691 153.535 196.43C149.433 200.677 149.156 205.367 146.78 212L143.512 211.333Z" fill="#62EF8E"/>
<path d="M157.867 214.265C158.624 205.56 157.169 200.181 154.49 196.625C156.612 202.073 154.995 206.658 154.599 213.598L157.867 214.265Z" fill="#62EF8E"/>
<path d="M166.483 216.025C167.304 207.065 160.548 200.618 156.406 197.017C160.526 203.197 163.686 208.048 163.687 215.454L166.483 216.025Z" fill="#62EF8E"/>
</svg>
