<svg width="290" height="64" viewBox="0 0 290 64" fill="none" xmlns="http://www.w3.org/2000/svg">
<g clip-path="url(#clip0_50_2596)">
<path d="M29 31H64V0L29 5.03222V31Z" fill="white"/>
<path d="M27 31V5L0 8.89805V31H27Z" fill="white"/>
<path d="M27 33H0V55.247L27 59V33Z" fill="white"/>
<path d="M29 33V59.0952L64 64V33H29Z" fill="white"/>
<path d="M132 13.0755L121.336 51H116.155L108.382 23.2642C108.082 22.2076 107.894 20.9623 107.819 19.4151H107.707C107.556 20.7358 107.331 21.9811 106.993 23.1887L99.1831 50.9623H94.0391L83 13.0377H87.8437L95.8789 42.1321C96.2169 43.4151 96.4421 44.6981 96.5548 45.9434H96.6674C96.7425 44.8868 97.0054 43.6038 97.4559 42.1321L105.829 13.0377H110.11L118.07 42.3208C118.37 43.4151 118.595 44.5849 118.708 45.8302H118.821C118.896 44.9245 119.159 43.717 119.534 42.2075L127.231 13H132V13.0755Z" fill="white"/>
<path d="M140 14.8019C140 15.5971 139.767 16.2786 139.267 16.8466C138.767 17.3767 138.167 17.6417 137.5 17.6417C136.8 17.6417 136.2 17.3767 135.733 16.8466C135.267 16.3165 135 15.6349 135 14.8019C135 14.0447 135.233 13.401 135.7 12.833C136.167 12.265 136.767 12 137.5 12C138.2 12 138.8 12.265 139.3 12.833C139.733 13.3631 140 14.0068 140 14.8019ZM139.333 51H135.5V23.8136H139.333V51Z" fill="white"/>
<path d="M169 52H164.755V36.4402C164.755 30.6576 162.688 27.7663 158.591 27.7663C156.487 27.7663 154.752 28.5652 153.349 30.2011C151.946 31.837 151.245 33.8913 151.245 36.4402V52H147V24.6848H151.245V29.212H151.356C153.349 25.75 156.228 24 160.03 24C162.946 24 165.161 24.9891 166.674 26.9294C168.188 28.8696 168.963 31.6467 168.963 35.2609V52H169Z" fill="white"/>
<path d="M201 51.3552H196.49V46.728H196.373C194.294 50.2553 191.078 52 186.686 52C183.118 52 180.294 50.7484 178.176 48.2831C176.059 45.8178 175 42.518 175 38.3839C175 33.8705 176.176 30.2673 178.49 27.5365C180.843 24.8057 183.941 23.4403 187.863 23.4403C191.706 23.4403 194.529 24.9195 196.294 27.84H196.412V11H200.922V51.3552H201ZM196.529 39.0666V35.0463C196.529 32.8085 195.745 30.9121 194.216 29.4329C192.686 27.9537 190.804 27.1952 188.569 27.1952C185.863 27.1952 183.706 28.1813 182.098 30.1156C180.49 32.05 179.706 34.7428 179.706 38.1943C179.706 41.3043 180.451 43.7697 181.941 45.5902C183.431 47.4107 185.471 48.321 188.02 48.321C190.49 48.321 192.529 47.4487 194.137 45.704C195.706 43.9593 196.529 41.7595 196.529 39.0666Z" fill="white"/>
<path d="M232 37.8883C232 42.133 230.776 45.5585 228.29 48.1277C225.805 50.6968 222.516 52 218.347 52C214.293 52 211.042 50.734 208.633 48.2394C206.224 45.7074 205 42.4309 205 38.2979C205 33.867 206.224 30.4043 208.71 27.8351C211.195 25.266 214.599 24 218.959 24C223.051 24 226.225 25.2287 228.52 27.7234C230.853 30.1809 232 33.5691 232 37.8883ZM227.526 38.0372C227.526 34.6862 226.761 32.117 225.231 30.3298C223.701 28.5426 221.521 27.6489 218.691 27.6489C215.861 27.6489 213.643 28.5798 211.999 30.4043C210.354 32.2287 209.551 34.8351 209.551 38.1489C209.551 41.3511 210.392 43.8457 212.037 45.633C213.681 47.4202 215.899 48.3511 218.729 48.3511C221.598 48.3511 223.778 47.4574 225.307 45.7074C226.761 43.883 227.526 41.3511 227.526 38.0372Z" fill="white"/>
<path d="M271 24.0376L262.854 51H258.346L252.739 31.6982C252.549 31.0223 252.398 30.1961 252.322 29.2198H252.208C252.17 29.8206 251.981 30.6467 251.64 31.6231L245.578 50.9624H241.221L233 24H237.584L243.191 44.2782C243.381 44.9916 243.495 45.7803 243.57 46.6815H243.798C243.835 46.0056 243.987 45.1794 244.29 44.2031L250.541 24H254.519L260.164 44.3157C260.354 44.9916 260.468 45.8178 260.543 46.719H260.771C260.809 45.8929 260.96 45.0668 261.187 44.3157L266.719 24H271V24.0376Z" fill="white"/>
<path d="M290 44.2181C290 46.5266 289.075 48.4255 287.224 49.8404C285.374 51.2926 282.907 52 279.862 52C277.24 52 274.966 51.4787 273 50.3989V45.8192C275.197 47.5319 277.587 48.3883 280.17 48.3883C283.678 48.3883 285.451 47.1596 285.451 44.6649C285.451 43.6596 285.104 42.8404 284.41 42.2074C283.717 41.5745 282.175 40.7181 279.746 39.6383C277.279 38.633 275.583 37.5532 274.542 36.3989C273.54 35.2447 273.039 33.7181 273.039 31.7819C273.039 29.5851 273.964 27.7234 275.775 26.234C277.626 24.7447 279.939 24 282.753 24C284.95 24 286.916 24.4096 288.651 25.266V29.5851C286.839 28.3191 284.757 27.6862 282.367 27.6862C280.902 27.6862 279.746 28.0213 278.859 28.7287C277.973 29.4362 277.51 30.3298 277.51 31.4096C277.51 32.6011 277.857 33.4947 278.551 34.1277C279.245 34.7606 280.633 35.5053 282.791 36.3989C285.413 37.4787 287.263 38.5957 288.342 39.7872C289.46 40.9415 290 42.4309 290 44.2181Z" fill="white"/>
</g>
<defs>
<clipPath id="clip0_50_2596">
<rect width="290" height="64" fill="white"/>
</clipPath>
</defs>
</svg>
