<svg width="321" height="64" viewBox="0 0 321 64" fill="none" xmlns="http://www.w3.org/2000/svg">
<g clip-path="url(#clip0_50_2618)">
<path d="M204.97 51L192.729 34.5253L180.5 51H175.458L190.175 31.0904L176.728 13H181.771L192.729 27.7573L203.687 13H208.717L195.282 31.0904L210 51H204.97ZM109.555 50.9873L94.8246 31.0904L108.272 13H103.229L92.2712 27.7573L81.3259 13H76.296L89.7305 31.0904L75 50.9873H80.0428L92.2712 34.5126L104.512 50.9873H109.555Z" fill="white"/>
<path d="M137.92 33.0409C137.162 32.3984 136.315 31.8586 135.403 31.4345C138.241 29.9181 140.013 26.9622 140.013 23.7494C140.013 21.2948 139.114 13.3012 127.545 13.3012H111.969V29.8538H106.782C106.114 30.7277 104.586 32.8353 103.995 33.7092H111.969V51.6883H127.545C135.981 51.6883 141.22 47.396 141.22 40.4819C141.233 37.4618 140.09 34.9044 137.92 33.0409ZM116.284 17.3108H127.558C130.601 17.3108 135.711 18.0691 135.711 23.4152C135.711 27.4506 132.732 29.8538 127.558 29.8538H116.284V17.3108ZM127.545 47.6915H116.271V33.7221H127.545C131.821 33.7221 136.931 34.9044 136.931 40.4048C136.931 46.7405 131.05 47.6915 127.545 47.6915ZM161.495 12.4273C150.722 12.4273 143.185 20.6779 143.185 32.4883C143.185 44.3116 150.709 52.5494 161.495 52.5494C172.256 52.5494 179.767 44.3116 179.767 32.4883C179.767 20.6779 172.256 12.4273 161.495 12.4273ZM161.495 48.4883C153.29 48.4883 147.538 41.9084 147.538 32.4883C147.538 23.0683 153.29 16.4883 161.495 16.4883C169.687 16.4883 175.414 23.0683 175.414 32.4883C175.414 41.9084 169.687 48.4883 161.495 48.4883ZM9.54055 9.2016L9.51487 9.2273C3.41563 15.2418 -0.012787 23.441 5.35098e-05 32C-0.012787 39.004 2.28566 45.8152 6.53587 51.3799C6.5744 51.4313 6.65144 51.4698 6.7028 51.4313C6.75416 51.3927 6.767 51.3285 6.74132 51.2642C4.30162 43.7205 16.7569 25.4329 23.2029 17.7735C23.2285 17.7478 23.2542 17.7221 23.2542 17.6835C23.2542 17.645 23.2285 17.6064 23.19 17.5807C12.3526 6.79839 9.46351 9.26586 9.50203 9.2273M54.4053 9.2016L54.431 9.2273C60.5302 15.2289 63.9458 23.441 63.933 32C63.9458 39.004 61.6473 45.8152 57.3971 51.3799C57.3586 51.4313 57.2816 51.4698 57.2302 51.4313C57.1788 51.3927 57.1788 51.3285 57.1917 51.2642C59.6314 43.7205 47.1761 25.4201 40.743 17.7606C40.7173 17.7349 40.6916 17.7092 40.6916 17.6707C40.6916 17.6193 40.7173 17.5936 40.7558 17.5679C51.5932 6.78554 54.4695 9.26586 54.431 9.2273M31.9729 0C38.4189 0 43.7348 1.77349 48.6271 4.67791C48.6913 4.70361 48.7041 4.78072 48.6784 4.83213C48.6528 4.88353 48.5885 4.89638 48.5243 4.88353C42.3352 3.54699 32.9231 8.89317 32.0371 9.43293C32.0114 9.44578 31.9986 9.45863 31.9729 9.45863C31.9472 9.45863 31.9216 9.44578 31.9087 9.43293C29.5461 8.07068 20.853 3.50843 15.3701 4.92209C15.3059 4.93494 15.2417 4.92209 15.2161 4.87068C15.1904 4.80642 15.2161 4.74217 15.2674 4.71646C20.1597 1.77349 25.5398 0 31.9729 0ZM31.9729 25.6642C32.0114 25.6642 32.05 25.6899 32.0756 25.7156C41.6418 33.0024 58.0135 50.9943 53.0185 56.0835L53.0314 56.0706V56.0835H53.0185C47.1889 61.1984 39.7029 64.0128 31.9601 64C24.2173 64.0128 16.7312 61.1984 10.9145 56.0835C5.91953 50.9943 22.2912 32.9895 31.8574 25.7156C31.883 25.6899 31.9344 25.6642 31.9729 25.6642ZM284.828 13.314V44.8128L261.638 13.2883L257.837 13.2755V51.6369H262.101V20.8321L284.828 51.6626L289.104 51.6755V13.314H284.828ZM235.688 12.4144C224.914 12.4144 217.377 20.665 217.377 32.4755C217.377 44.2988 224.914 52.5494 235.688 52.5494C246.448 52.5494 253.96 44.2988 253.96 32.4755C253.96 20.6779 246.448 12.4144 235.688 12.4144ZM235.688 48.4883C227.483 48.4883 221.73 41.9084 221.73 32.4755C221.73 23.0554 227.483 16.4755 235.688 16.4755C243.88 16.4755 249.607 23.0554 249.607 32.4755C249.594 41.8956 243.88 48.4883 235.688 48.4883ZM298.195 47.91V33.7221H319.292V29.9695H298.195V17.041H320.73V13.2883H293.906V51.6626H321V47.91H298.195Z" fill="white"/>
</g>
<defs>
<clipPath id="clip0_50_2618">
<rect width="321" height="64" fill="white"/>
</clipPath>
</defs>
</svg>
