<svg width="288" height="60" viewBox="0 0 288 60" fill="none" xmlns="http://www.w3.org/2000/svg">
<path d="M12.9465 48.4155C14.8517 49.0205 18.2969 48.8498 20.6428 48.0321L27 45.7936V52.2763C26.5944 52.3414 26.1497 52.4134 25.7364 52.4786C19.3755 53.4859 12.5958 53.067 5.92397 50.9311C-0.299671 49.2326 -1.33853 45.6949 1.49887 43.6516C4.12428 41.7647 8.58114 40.3511 8.58114 40.3511L27 34V41.2381L13.7457 45.8434C11.3992 46.6574 11.0458 47.8153 12.9465 48.4155Z" fill="white"/>
<path d="M77.3001 45.8424C75.7615 47.7489 72.0013 49.1105 72.0013 49.1105L44 59V51.7091L64.6061 44.4845C66.9452 43.6622 67.3064 42.4972 65.4067 41.8872C63.5069 41.2756 60.0731 41.4503 57.7331 42.2723L44 47.0315V39.4658L44.7879 39.2034C44.7879 39.2034 48.7608 37.8192 54.3345 37.2078C59.9157 36.6131 66.7493 37.2907 72.1111 39.2933C78.1555 41.1715 78.835 43.9399 77.3001 45.8424Z" fill="white"/>
<path d="M46.8077 33.4369V14.6854C46.8077 12.4896 46.401 10.467 44.3205 9.89174C42.7284 9.37576 41.7446 10.8511 41.7446 13.0472V60L29 55.9791V0C34.4215 0.998257 42.3108 3.36125 46.5566 4.77715C57.3427 8.46449 61 13.0472 61 23.3696C61 33.4332 54.7511 37.2507 46.8077 33.4369Z" fill="white"/>
<path d="M260.082 42.8124C260.082 42.9638 259.962 43.0798 259.821 43.0798H225.082C224.799 43.0798 224.651 43.011 224.611 42.9063C224.569 42.7413 224.662 42.621 224.865 42.4825L259.44 21.2102C259.682 21.0619 260.082 21.085 260.082 21.5592V42.8124ZM275.732 43.0926L268.042 43.087H268.31C268.164 43.087 268.042 42.9675 268.042 42.8281V17.9332C268.042 14.1078 265.393 12.8537 261.675 15.1481L217.051 42.5356C215.296 43.6118 214.708 44.827 215.132 45.7272C215.498 46.501 216.461 47.0404 218.392 47.0404L259.837 47.0437C259.953 47.0523 260.047 47.1319 260.075 47.2386V50.7326C260.075 50.8802 260.191 51 260.33 51H267.783C267.922 51 268.042 50.8802 268.042 50.7326V47.3111C268.042 47.1632 268.164 47.0437 268.303 47.0437H275.732C275.878 47.0437 276 46.9234 276 46.7792V43.3478C276 43.2121 275.878 43.0926 275.732 43.0926Z" fill="white"/>
<path d="M146.642 33.8933H115.722C112.866 33.8933 110.871 36.3282 110.871 39.8134V50.7394C110.871 50.8839 110.757 51 110.614 51H103.262C103.12 51 103.004 50.8868 103.004 50.7394L103 39.8134C103 34.1814 106.773 29.9382 111.78 29.9382H144.037C147.494 29.9382 149.133 27.429 149.133 23.9461C149.133 20.4609 147.488 17.9522 144.037 17.9522H103.262C103.116 17.9522 103 17.8356 103 17.6923V14.2563C103 14.1158 103.116 14 103.258 14H146.642C153.598 14 157 18.3243 157 23.954C157 29.58 153.598 33.8933 146.642 33.8933Z" fill="white"/>
<path d="M218.745 17.9515H197.194C193.714 17.9515 192.059 20.4582 192.059 23.9446V41.0589C192.059 46.6885 188.621 51 181.61 51H156.261C156.116 51 156 50.8839 156 50.7394V47.3048C156 47.1574 156.116 47.0445 156.255 47.0445H178.986C182.469 47.0445 184.124 44.5385 184.124 41.0551V23.9517C184.124 18.3286 187.556 14.0034 194.567 14.0034L218.745 14C218.884 14 219 14.1155 219 14.26V17.6949C219 17.8345 218.887 17.9515 218.745 17.9515Z" fill="white"/>
</svg>
